<?xml version="1.0" standalone="no"?>
<!DOCTYPE svg PUBLIC "-//W3C//DTD SVG 1.1//EN" "http://www.w3.org/Graphics/SVG/1.1/DTD/svg11.dtd" >
<svg xmlns="http://www.w3.org/2000/svg">
<metadata>Generated by IcoMoon</metadata>
<defs>
<font id="NiceFluorine" horiz-adv-x="1024">
<font-face units-per-em="1024" ascent="896" descent="-128" />
<missing-glyph horiz-adv-x="1024" />
<glyph unicode="&#x20;" horiz-adv-x="512" d="" />
<glyph unicode="&#xe900;" glyph-name="fluorine_0000" d="M0 393.365l517.355 374.635 506.645-378.219-506.645-371.029z" />
<glyph unicode="&#xe901;" glyph-name="fluorine_0001" d="M660.053 425.493h24.981l3.563 24.96h-21.397c0 0 7.125 25.003 24.981 32.128 21.397 7.125 42.816 3.541 42.816 3.541v25.003c0 0-39.253 0-42.816 0-42.816 0-67.797-32.128-74.944-60.672h-28.544l-3.563-24.96h25.003l-28.544-99.925h49.941l28.523 99.925zM442.411 322.005c-24.96 0-53.525 17.877-53.525 57.088 0 39.253 28.565 74.965 78.507 74.965 24.981 0 39.253-17.835 42.816-28.544l3.584 24.96h49.941c0 0-17.835-92.757-24.981-110.592-10.688-39.253-39.232-78.507-78.485-78.507-32.128 0-74.944 17.835-74.944 17.835l10.709 21.419c17.835-3.584 42.816-14.293 64.235 0 10.688 7.125 21.397 21.376 24.981 35.669 0 0-17.856-14.293-42.837-14.293v0zM495.936 389.781c0 21.419-7.125 39.253-32.107 39.253-28.544 0-49.963-28.544-49.963-49.963 0-21.376 17.856-32.085 35.691-32.085 24.981 0.021 46.379 17.856 46.379 42.795v0zM221.205 418.325c46.4 60.672 53.525 74.965 89.216 85.675 24.981 7.125 85.632 3.541 89.195 7.125l-60.651-185.536h-64.235l14.272 49.963h-67.797c0 0-17.835-25.003-28.544-32.128-21.397-17.835-53.525-14.251-57.088-14.251v24.96c24.981 3.584 35.691-3.584 85.632 64.192v0zM299.712 475.456c-21.419-10.709-60.672-74.965-60.672-74.965h57.109l28.544 74.965c0 0-17.856 3.541-24.981 0v0zM788.523 350.549c-10.709-17.835-32.128-28.544-57.088-28.544-21.419 0-46.4 21.419-46.4 53.547 0 42.795 35.691 74.923 78.507 74.923 28.544 0 42.816-24.96 42.816-24.96l7.147 24.96h49.941l-35.669-124.885h-46.4l7.147 24.96zM788.523 396.949c0 14.251-10.709 32.085-28.544 32.085-24.981 0-46.4-24.96-46.4-49.963 0-17.835 10.709-32.085 28.544-32.085 24.981 0.021 46.4 21.44 46.4 49.963v0z" />
<glyph unicode="&#xe902;" glyph-name="fluorine_0002" d="M164.885 508.437c0 54.208 32.299 91.115 86.507 91.115 49.579 0 78.421-24.213 78.421-61.099h-50.752c0 11.52-8.064 19.605-27.669 19.605-20.779 0-32.299-23.061-32.299-47.296 0-21.909 10.368-43.819 32.299-43.819 17.301 0 27.669 5.781 27.669 19.605h-21.909v35.755h73.813v-93.419h-34.603c0 0 0 6.912 0 13.824-2.283-2.283-16.149-17.301-47.275-17.301-50.752 0-84.203 32.299-84.203 83.029v0zM53.035 428.864c0 0-24.213 0-53.035 0l61.12 167.211h51.883l59.989-167.211h-53.056l-8.085 20.779h-50.731l-8.085-20.779zM86.485 541.888l-17.301-56.512h34.603l-17.301 56.512zM349.397 596.075h129.173v-44.971h-76.096v-24.213h61.099v-40.363h-61.099v-57.664h-53.056v167.211zM512 428.864h-53.035l61.099 167.211h53.056l58.816-167.211h-51.904l-9.237 20.779h-51.904l-6.891-20.779zM545.429 541.888l-16.149-57.664h33.429l-17.28 57.664z" />
<glyph unicode="&#xe903;" glyph-name="fluorine_0003" d="M693.035 509.589l167.211 121.088 163.755-122.24-163.755-119.936z" />
<glyph unicode="&#xe904;" glyph-name="fluorine_0004" d="M71.083 256.149h-16.171v48.704h-38.528v-48.704h-16.171v107.2h16.171v-45.419h38.549v45.419h16.171v-107.2zM191.488 269.248c-4.032-4.885-8.619-8.555-13.739-11.008-5.077-2.432-10.688-3.669-16.768-3.669-11.115 0-19.712 4.075-25.835 12.245-6.123 8.192-9.173 18.837-9.173 31.979 0 10.88 3.264 20.16 9.835 27.904 6.592 7.723 14.912 11.584 25.003 11.584 10.283 0 18.283-3.669 23.957-10.987 5.696-7.339 8.512-17.003 8.512-28.971 0-1.365-0.107-3.2-0.32-5.525h-51.307c0.448-8.405 2.411-14.891 5.995-19.456 3.584-4.587 8.448-6.869 14.677-6.869 3.776 0 7.36 0.875 10.709 2.603 3.371 1.728 6.528 4.373 9.451 7.893l9.003-7.723zM174.165 320.896c-3.264 4.501-7.723 6.741-13.355 6.741-5.739 0-10.347-2.453-13.867-7.381s-5.291-10.709-5.291-17.429h37.461c0 7.552-1.664 13.589-4.949 18.069zM298.709 256.149h-13.717l-1.109 8.192c-4.011-3.413-7.957-5.952-11.883-7.637s-7.872-2.517-11.861-2.517c-6.208 0-11.328 2.219-15.381 6.677s-6.059 9.856-6.059 16.277c0 4.885 1.237 9.173 3.691 12.864 2.475 3.669 6.165 6.699 11.093 9.067 4.907 2.368 10.837 3.989 17.771 4.821l12.629 1.579v9.131c0 4.096-1.045 7.189-3.093 9.237-2.048 2.069-5.12 3.093-9.237 3.093-4.075 0-7.957-0.683-11.584-2.069-3.627-1.344-7.019-3.413-10.176-6.144l-7.424 9.003c4.373 3.456 9.216 6.080 14.528 7.829 5.291 1.771 11.051 2.645 17.259 2.645 7.893 0 13.931-1.856 18.176-5.568s6.357-9.109 6.357-16.192v-60.288zM283.904 276.971v18.432c-12.203-1.365-20.288-3.371-24.256-6.016-3.968-2.667-5.952-6.037-5.952-10.155 0-4.032 1.045-7.296 3.093-9.728s5.056-3.669 9.067-3.669c3.264 0 7.083 1.173 11.477 3.477 4.352 2.325 6.571 4.864 6.571 7.659zM386.304 256.789c-4.523-1.28-9.045-1.899-13.568-1.899-5.099 0-9.131 1.579-12.053 4.736-2.944 3.157-4.416 7.445-4.416 12.864v97.493h14.827v-92.992c0-4.885 0.768-8.043 2.347-9.451 1.579-1.429 4.011-2.155 7.339-2.155 2.112 0 3.947 0.213 5.525 0.64v-9.237zM472.341 257.579c-2.645-0.896-5.483-1.557-8.555-2.027-3.072-0.448-6.379-0.661-9.899-0.661-5.077 0-9.067 1.813-11.947 5.44-2.859 3.627-4.288 8.491-4.288 14.592v51.307h-12.779v4.821c4.672 2.965 8.853 6.507 12.523 10.645 3.691 4.139 6.869 8.917 9.536 14.272h5.525v-19.541h18.219v-10.197h-18.219v-48.085c0-4.565 0.747-7.68 2.24-9.344s4.395-2.475 8.704-2.475c1.856 0 4.821 0.363 8.917 1.109v-9.856zM582.869 256.149h-14.805v56.512c0 4.843-0.981 8.213-2.923 10.176-1.963 1.941-4.971 2.923-9.067 2.923-5.696 0-10.368-1.216-14.080-3.627s-5.568-5.099-5.568-8.043v-57.941h-14.891v113.813h14.891v-42.005c8.213 6.677 16.896 10.005 26.112 10.005 6.101 0 11.008-1.643 14.72-4.949 3.755-3.307 5.611-7.765 5.611-13.397v-63.467zM716.437 279.403c-3.669-8.512-8.491-14.891-14.464-19.157-5.952-4.245-13.056-6.379-21.312-6.379-13.419 0-24.085 5.312-32.064 15.957-7.957 10.645-11.947 24.064-11.947 40.256 0 16.128 3.84 29.397 11.52 39.765 7.659 10.368 18.496 15.552 32.469 15.552 8.192 0 15.168-1.749 20.907-5.248 5.76-3.477 10.283-8.725 13.611-15.701l-13.717-7.104c-2.325 5.141-5.205 9.024-8.683 11.627-3.456 2.603-7.531 3.904-12.117 3.904-8.32 0-14.592-3.819-18.859-11.413-4.245-7.616-6.379-18.197-6.379-31.68 0-12.629 2.155-22.827 6.464-30.635s10.432-11.712 18.368-11.712c5.141 0 9.493 1.451 13.077 4.416 3.563 2.944 6.379 7.36 8.448 13.227l14.677-5.675zM819.413 256.149h-13.717l-1.109 8.192c-4.011-3.413-7.957-5.952-11.883-7.637s-7.851-2.517-11.861-2.517c-6.208 0-11.328 2.219-15.381 6.677s-6.059 9.856-6.059 16.277c0 4.885 1.237 9.173 3.712 12.864 2.453 3.669 6.144 6.699 11.072 9.067 4.907 2.368 10.837 3.989 17.771 4.821l12.629 1.579v9.131c0 4.096-1.024 7.189-3.093 9.237-2.048 2.069-5.12 3.093-9.216 3.093s-7.979-0.683-11.605-2.069c-3.627-1.344-7.019-3.413-10.176-6.144l-7.403 9.003c4.352 3.456 9.195 6.080 14.507 7.829 5.291 1.771 11.072 2.645 17.259 2.645 7.893 0 13.931-1.856 18.197-5.568 4.224-3.712 6.336-9.109 6.336-16.192v-60.288zM804.608 276.971v18.432c-12.181-1.365-20.267-3.371-24.256-6.016-3.968-2.667-5.931-6.037-5.931-10.155 0-4.032 1.024-7.296 3.072-9.728 2.069-2.432 5.077-3.669 9.067-3.669 3.264 0 7.083 1.173 11.477 3.477 4.352 2.325 6.571 4.864 6.571 7.659zM913.088 322.667c-0.896 0.107-2.539 0.171-4.949 0.171-4.203 0-8.256-1.024-12.096-3.051s-5.781-4.565-5.781-7.595v-56.043h-14.891v80.256h13.483l1.408-10.496c2.731 4.16 5.973 7.296 9.728 9.387 3.776 2.091 8.149 3.136 13.12 3.136v-15.765zM1019.755 269.248c-4.032-4.885-8.597-8.555-13.717-11.008s-10.688-3.669-16.789-3.669c-11.093 0-19.691 4.075-25.813 12.245-6.123 8.192-9.195 18.837-9.195 31.979 0 10.88 3.285 20.16 9.856 27.904s14.891 11.584 25.003 11.584c10.283 0 18.261-3.669 23.957-10.987 5.675-7.339 8.491-17.003 8.491-28.971 0-1.365-0.107-3.2-0.32-5.525h-51.307c0.427-8.405 2.411-14.891 5.995-19.456 3.563-4.587 8.448-6.869 14.656-6.869 3.797 0 7.36 0.875 10.731 2.603 3.349 1.728 6.528 4.373 9.451 7.893l9.003-7.723zM1002.453 320.896c-3.285 4.501-7.744 6.741-13.355 6.741-5.76 0-10.347-2.453-13.867-7.381-3.541-4.907-5.291-10.731-5.291-17.451h37.44c0 7.573-1.621 13.611-4.928 18.091z" />
<glyph unicode="&#xe905;" glyph-name="fluorine_0005" d="M906.368 519.979h8.085l1.152 8.064h-6.912c0 0 2.304 8.085 8.064 10.389 6.912 2.283 13.845 1.152 13.845 1.152v8.043c0 0-12.693 0-13.845 0-13.824 0-21.888-10.368-24.213-19.605h-9.237l-1.152-8.064h8.064l-9.237-32.299h16.149l9.237 32.32zM836.032 486.528c8.064 0 13.824 4.608 13.824 4.608-1.152-4.608-4.608-9.237-8.064-11.52-6.933-4.629-14.997-1.173-20.779 0l-3.456-6.912c0 0 13.824-5.781 24.235-5.781 12.672 0 21.888 12.693 25.344 25.365 2.304 5.76 8.085 35.733 8.085 35.733h-16.149l-1.173-8.064c-1.152 3.456-5.76 9.237-13.824 9.237-16.149 0-25.365-11.541-25.365-24.235 0.021-12.651 9.259-18.432 17.323-18.432v0zM853.333 508.437c0-8.064-6.912-13.824-14.997-13.824-5.76 0-11.52 3.456-11.52 10.368s6.912 16.149 16.149 16.149c8.064-0.021 10.368-5.76 10.368-12.693v0zM764.544 517.653c-16.149-21.888-19.605-19.605-27.691-20.757v-8.085c1.173 0 11.541-1.152 18.453 4.629 3.456 2.304 9.237 10.368 9.237 10.368h21.909l-4.629-16.149h20.779l19.584 59.968c-1.152-1.152-20.757 0-28.821-2.283-11.541-3.456-13.845-8.085-28.821-27.691v0zM789.909 536.107c2.283 1.152 8.064 0 8.064 0l-9.237-24.235h-18.432c0 0.021 12.693 20.779 19.605 24.235v0zM947.904 495.765l-2.304-8.085h14.997l11.52 40.363h-16.149l-2.283-8.064c0 0-4.629 8.064-13.845 8.064-13.824 0-25.344-10.368-25.344-24.213 0-10.368 8.064-17.301 14.976-17.301 8.043 0 14.976 3.456 18.432 9.237v0zM947.904 510.741c0-9.237-6.912-16.149-14.997-16.149-5.76 0-9.237 4.629-9.237 10.368 0 8.085 6.933 16.149 14.997 16.149 5.781 0 9.237-5.739 9.237-10.368v0z" />
<glyph unicode="&#xe906;" glyph-name="fluorine_0006" d="M512 810.667c-235.733 0-426.667-190.933-426.667-426.667s190.933-426.667 426.667-426.667 426.667 190.933 426.667 426.667-190.933 426.667-426.667 426.667z" />
<glyph unicode="&#xe907;" glyph-name="fluorine_0007" d="M853.333 810.667h-682.667c-47.125 0-85.333-38.208-85.333-85.333v-682.667c0-47.125 38.208-85.333 85.333-85.333h682.667c47.125 0 85.333 38.208 85.333 85.333v682.667c0 47.125-38.208 85.333-85.333 85.333z" />
<glyph unicode="&#xe908;" glyph-name="fluorine_0008" d="M147.797 0c-30.485 0-58.667 16.277-73.899 42.667-15.253 26.389-15.253 58.944 0 85.333l364.203 630.805c15.232 26.389 43.413 42.667 73.899 42.667s58.667-16.277 73.899-42.667l364.203-630.805c15.232-26.389 15.232-58.944 0-85.333s-43.413-42.667-73.899-42.667h-728.405z" />
<glyph unicode="&#xe909;" glyph-name="fluorine_0009" d="M810.667 768h-597.333c-47.125 0-85.333-38.208-85.333-85.333v-597.333c0-47.125 38.208-85.333 85.333-85.333h597.333c47.125 0 85.333 38.208 85.333 85.333v597.333c0 47.125-38.208 85.333-85.333 85.333z" />
<glyph unicode="&#xe90a;" glyph-name="fluorine_0010" d="M853.333 426.667h-519.253l238.293 238.293-60.373 60.373-341.333-341.333 341.333-341.333 60.373 60.373-238.293 238.293h519.253v85.333z" />
<glyph unicode="&#xe90b;" glyph-name="fluorine_0011" d="M170.667 341.333h519.253l-238.293-238.293 60.373-60.373 341.333 341.333-341.333 341.333-60.373-60.373 238.293-238.293h-519.253v-85.333z" />
<glyph unicode="&#xe90c;" glyph-name="fluorine_0012" d="M554.667 42.667v519.253l238.293-238.293 60.373 60.373-341.333 341.333-341.333-341.333 60.373-60.373 238.293 238.293v-519.253h85.333z" />
<glyph unicode="&#xe90d;" glyph-name="fluorine_0013" d="M469.333 725.333v-519.253l-238.293 238.293-60.373-60.373 341.333-341.333 341.333 341.333-60.373 60.373-238.293-238.293v519.253h-85.333z" />
<glyph unicode="&#xe90e;" glyph-name="fluorine_0014" d="M896 426.667h-519.253l238.293 238.293-60.373 60.373-298.667-298.667v341.333h-85.333v-768h85.333v341.333l298.667-298.667 60.373 60.373-238.293 238.293h519.253z" />
<glyph unicode="&#xe90f;" glyph-name="fluorine_0015" d="M128 341.333h519.253l-238.293-238.293 60.373-60.373 298.667 298.667v-341.333h85.333v768h-85.333v-341.333l-298.667 298.667-60.373-60.373 238.293-238.293h-519.253z" />
<glyph unicode="&#xe910;" glyph-name="fluorine_0016" d="M554.667 0v519.253l238.293-238.293 60.373 60.373-298.667 298.667h341.333v85.333h-768v-85.333h341.333l-298.667-298.667 60.373-60.373 238.293 238.293v-519.253z" />
<glyph unicode="&#xe911;" glyph-name="fluorine_0017" d="M469.333 768v-519.253l-238.293 238.293-60.373-60.373 298.667-298.667h-341.333v-85.333h768v85.333h-341.333l298.667 298.667-60.373 60.373-238.293-238.293v519.253z" />
<glyph unicode="&#xe912;" glyph-name="fluorine_0018" d="M938.667 384c0-235.648-191.019-426.667-426.667-426.667s-426.667 191.019-426.667 426.667 191.019 426.667 426.667 426.667 426.667-191.019 426.667-426.667zM376.747 426.667l195.627 195.627-60.373 60.373-298.667-298.667 298.667-298.667 60.373 60.373-195.627 195.627h433.92v85.333h-433.92z" />
<glyph unicode="&#xe913;" glyph-name="fluorine_0019" d="M85.333 384c0 235.648 191.019 426.667 426.667 426.667s426.667-191.019 426.667-426.667-191.019-426.667-426.667-426.667-426.667 191.019-426.667 426.667zM647.253 341.333l-195.627-195.627 60.373-60.373 298.667 298.667-298.667 298.667-60.373-60.373 195.627-195.627h-433.92v-85.333h433.92z" />
<glyph unicode="&#xe914;" glyph-name="fluorine_0020" d="M512-42.667c-235.648 0-426.667 191.019-426.667 426.667s191.019 426.667 426.667 426.667 426.667-191.019 426.667-426.667-191.019-426.667-426.667-426.667zM554.667 519.253l195.627-195.627 60.373 60.373-298.667 298.667-298.667-298.667 60.373-60.373 195.627 195.627v-433.92h85.333v433.92z" />
<glyph unicode="&#xe915;" glyph-name="fluorine_0021" d="M512 810.667c235.648 0 426.667-191.019 426.667-426.667s-191.019-426.667-426.667-426.667-426.667 191.019-426.667 426.667 191.019 426.667 426.667 426.667zM469.333 248.747l-195.627 195.627-60.373-60.373 298.667-298.667 298.667 298.667-60.373 60.373-195.627-195.627v433.92h-85.333v-433.92z" />
<glyph unicode="&#xe916;" glyph-name="fluorine_0022" d="M657.707 579.627l-60.373 60.373-256-256 256-256 60.373 60.373-195.627 195.627 195.627 195.627z" />
<glyph unicode="&#xe917;" glyph-name="fluorine_0023" d="M366.293 188.373l60.373-60.373 256 256-256 256-60.373-60.373 195.627-195.627-195.627-195.627z" />
<glyph unicode="&#xe918;" glyph-name="fluorine_0024" d="M707.627 238.293l60.373 60.373-256 256-256-256 60.373-60.373 195.627 195.627 195.627-195.627z" />
<glyph unicode="&#xe919;" glyph-name="fluorine_0025" d="M316.373 529.707l-60.373-60.373 256-256 256 256-60.373 60.373-195.627-195.627-195.627 195.627z" />
<glyph unicode="&#xe91a;" glyph-name="fluorine_0026" d="M938.667 384c0-235.648-191.019-426.667-426.667-426.667s-426.667 191.019-426.667 426.667 191.019 426.667 426.667 426.667 426.667-191.019 426.667-426.667zM440.747 384l174.293 174.293-60.373 60.373-234.667-234.667 234.667-234.667 60.373 60.373-174.293 174.293z" />
<glyph unicode="&#xe91b;" glyph-name="fluorine_0027" d="M85.333 384c0 235.648 191.019 426.667 426.667 426.667s426.667-191.019 426.667-426.667-191.019-426.667-426.667-426.667-426.667 191.019-426.667 426.667zM583.253 384l-174.293-174.293 60.373-60.373 234.667 234.667-234.667 234.667-60.373-60.373 174.293-174.293z" />
<glyph unicode="&#xe91c;" glyph-name="fluorine_0028" d="M512-42.667c-235.648 0-426.667 191.019-426.667 426.667s191.019 426.667 426.667 426.667 426.667-191.019 426.667-426.667-191.019-426.667-426.667-426.667zM512 455.253l174.293-174.293 60.373 60.373-234.667 234.667-234.667-234.667 60.373-60.373 174.293 174.293z" />
<glyph unicode="&#xe91d;" glyph-name="fluorine_0029" d="M512 810.667c235.648 0 426.667-191.019 426.667-426.667s-191.019-426.667-426.667-426.667-426.667 191.019-426.667 426.667 191.019 426.667 426.667 426.667zM512 312.747l-174.293 174.293-60.373-60.373 234.667-234.667 234.667 234.667-60.373 60.373-174.293-174.293z" />
<glyph unicode="&#xe91e;" glyph-name="fluorine_0030" d="M256 256h384v-128h-384v128z" />
<glyph unicode="&#xe91f;" glyph-name="fluorine_0031" d="M170.667 682.667v-554.667h640v554.667h-640zM725.333 213.333h-469.333v341.333h469.333v-341.333z" />
<glyph unicode="&#xe920;" glyph-name="fluorine_0032" d="M853.333 725.333h-469.333v-213.333h-213.333v-426.667h469.333v213.333h213.333v426.667zM554.667 170.667h-298.667v213.333h298.667v-213.333zM768 384h-128v128h-170.667v85.333h298.667v-213.333z" />
<glyph unicode="&#xe921;" glyph-name="fluorine_0033" d="M768 576l-64 64-192-192-192 192-64-64 192-192-192-192 64-64 192 192 192-192 64 64-192 192z" />
<glyph unicode="&#xe922;" glyph-name="fluorine_0034" d="M810.667 622.293l-60.373 60.373-238.293-238.293-238.293 238.293-60.373-60.373 238.293-238.293-238.293-238.293 60.373-60.373 238.293 238.293 238.293-238.293 60.373 60.373-238.293 238.293 238.293 238.293z" />
<glyph unicode="&#xe923;" glyph-name="fluorine_0035" d="M426.667 170.667l-213.333 213.333 60.373 60.373 152.96-152.96 323.627 323.627 60.373-60.373z" />
<glyph unicode="&#xe924;" glyph-name="fluorine_0036" d="M384 206.080l-177.92 177.92-60.373-60.373 238.293-238.293 512 512-60.373 60.373-451.627-451.627z" />
<glyph unicode="&#xe925;" glyph-name="fluorine_0037" d="M512 725.333c188.203 0 341.333-153.131 341.333-341.333s-153.131-341.333-341.333-341.333-341.333 153.131-341.333 341.333 153.131 341.333 341.333 341.333zM512 810.667c-235.733 0-426.667-190.933-426.667-426.667 0-235.52 190.933-426.667 426.667-426.667 235.52 0 426.667 191.147 426.667 426.667 0 235.733-191.147 426.667-426.667 426.667v0zM707.627 529.707l-238.293-238.293-152.96 152.96-60.373-60.373 213.333-213.333 298.667 298.667z" />
<glyph unicode="&#xe926;" glyph-name="fluorine_0038" d="M512 810.667c-235.733 0-426.667-190.933-426.667-426.667 0-235.52 190.933-426.667 426.667-426.667 235.52 0 426.667 191.147 426.667 426.667 0 235.733-191.147 426.667-426.667 426.667zM426.667 170.667l-213.333 213.333 60.373 60.373 152.96-152.96 323.627 323.627 60.373-60.373-384-384z" />
<glyph unicode="&#xe927;" glyph-name="fluorine_0039" d="M512 810.667c-235.733 0-426.667-190.933-426.667-426.667s190.933-426.667 426.667-426.667 426.667 190.933 426.667 426.667-190.933 426.667-426.667 426.667zM170.667 384c0 188.587 152.747 341.333 341.333 341.333 78.933 0 151.253-27.093 209.067-71.893l-478.507-478.507c-44.8 57.813-71.893 130.133-71.893 209.067zM512 42.667c-78.933 0-151.253 27.093-209.067 71.893l478.507 478.507c44.8-57.813 71.893-130.133 71.893-209.067 0-188.587-152.747-341.333-341.333-341.333z" />
<glyph unicode="&#xe928;" glyph-name="fluorine_0040" d="M469.333 128h85.333v85.333h-85.333v-85.333zM512 810.667c-235.52 0-426.667-191.168-426.667-426.667s191.147-426.667 426.667-426.667c235.499 0 426.667 191.168 426.667 426.667s-191.168 426.667-426.667 426.667zM512 42.667c-188.16 0-341.333 153.173-341.333 341.333s153.173 341.333 341.333 341.333 341.333-153.173 341.333-341.333-153.173-341.333-341.333-341.333zM512 640c-94.293 0-170.667-76.373-170.667-170.667h85.333c0 46.912 38.4 85.333 85.333 85.333 46.912 0 85.333-38.421 85.333-85.333 0-85.333-128-74.667-128-213.333h85.333c0 96 128 106.667 128 213.333 0 94.293-76.373 170.667-170.667 170.667z" />
<glyph unicode="&#xe929;" glyph-name="fluorine_0041" d="M512 810.667c-235.733 0-426.667-190.933-426.667-426.667s190.933-426.667 426.667-426.667 426.667 190.933 426.667 426.667-190.933 426.667-426.667 426.667zM554.667 85.333h-85.333v85.333h85.333v-85.333zM642.773 415.787l-38.187-39.253c-30.72-30.72-49.92-56.533-49.92-120.533h-85.333v21.333c0 47.147 19.2 89.813 49.92 120.747l53.12 53.76c15.36 15.36 24.96 36.693 24.96 60.16 0 47.147-38.187 85.333-85.333 85.333s-85.333-38.187-85.333-85.333h-85.333c0 94.293 76.373 170.667 170.667 170.667s170.667-76.373 170.667-170.667c0-37.547-15.147-71.467-39.893-96.213z" />
<glyph unicode="&#xe92a;" glyph-name="fluorine_0042" d="M469.333 170.667h85.333v256h-85.333v-256zM512 810.667c-235.733 0-426.667-190.933-426.667-426.667s190.933-426.667 426.667-426.667 426.667 190.933 426.667 426.667-190.933 426.667-426.667 426.667zM512 42.667c-188.16 0-341.333 153.173-341.333 341.333s153.173 341.333 341.333 341.333c188.16 0 341.333-153.173 341.333-341.333s-153.173-341.333-341.333-341.333zM469.333 512h85.333v85.333h-85.333v-85.333z" />
<glyph unicode="&#xe92b;" glyph-name="fluorine_0043" d="M512 810.667c-235.733 0-426.667-190.933-426.667-426.667s190.933-426.667 426.667-426.667 426.667 190.933 426.667 426.667-190.933 426.667-426.667 426.667zM554.667 170.667h-85.333v256h85.333v-256zM554.667 512h-85.333v85.333h85.333v-85.333z" />
<glyph unicode="&#xe92c;" glyph-name="fluorine_0044" d="M512 810.667c-235.733 0-426.667-190.933-426.667-426.667s190.933-426.667 426.667-426.667 426.667 190.933 426.667 426.667-190.933 426.667-426.667 426.667zM725.333 231.040l-60.373-60.373-152.96 152.96-152.96-152.96-60.373 60.373 152.96 152.96-152.96 152.96 60.373 60.373 152.96-152.96 152.96 152.96 60.373-60.373-152.96-152.96 152.96-152.96z" />
<glyph unicode="&#xe92d;" glyph-name="fluorine_0045" d="M147.797 0c-30.485 0-58.667 16.277-73.899 42.667-15.253 26.389-15.253 58.944 0 85.333l364.203 630.805c15.232 26.389 43.413 42.667 73.899 42.667s58.667-16.277 73.899-42.667l364.203-630.805c15.232-26.389 15.232-58.944 0-85.333s-43.413-42.667-73.899-42.667h-728.405zM554.667 213.333h-85.333v-85.333h85.333v85.333zM554.667 554.667h-85.333v-256h85.333v256z" />
<glyph unicode="&#xe92e;" glyph-name="fluorine_0046" d="M725.333 298.667l-213.333 213.333-213.333-213.333h426.667z" />
<glyph unicode="&#xe92f;" glyph-name="fluorine_0047" d="M298.667 469.333l213.333-213.333 213.333 213.333h-426.667z" />
<glyph unicode="&#xe930;" glyph-name="fluorine_0048" d="M512-42.667c235.733 0 426.667 190.933 426.667 426.667s-190.933 426.667-426.667 426.667-426.667-190.933-426.667-426.667 190.933-426.667 426.667-426.667zM512 469.333l170.667-170.667h-341.333l170.667 170.667z" />
<glyph unicode="&#xe931;" glyph-name="fluorine_0049" d="M512 810.667c-235.733 0-426.667-190.933-426.667-426.667s190.933-426.667 426.667-426.667 426.667 190.933 426.667 426.667-190.933 426.667-426.667 426.667zM512 298.667l-170.667 170.667h341.333l-170.667-170.667z" />
<glyph unicode="&#xe932;" glyph-name="fluorine_0050" d="M853.333 640v-512c0-47.125-38.208-85.333-85.333-85.333h-85.333v213.333h-341.333v-213.333h-85.333c-47.125 0-85.333 38.208-85.333 85.333v512c0 47.125 38.208 85.333 85.333 85.333h512c47.125 0 85.333-38.208 85.333-85.333zM725.333 682.667h-426.667v-256h426.667v256zM426.667 170.667h128v-128h-128v128z" />
<glyph unicode="&#xe933;" glyph-name="fluorine_0051" d="M170.667 426.667v256h426.667v-107.648c40.085 14.187 83.051 22.315 128 22.315v42.667c0 47.125-38.208 85.333-85.333 85.333h-512c-47.125 0-85.333-38.208-85.333-85.333v-512c0-47.125 38.208-85.333 85.333-85.333h85.333v213.333h130.496c6.933 62.677 28.864 120.789 62.251 170.667h-235.413zM725.333 512c-165.013 0-298.667-133.653-298.667-298.667 0-164.864 133.653-298.667 298.667-298.667 164.864 0 298.667 133.803 298.667 298.667 0 165.013-133.803 298.667-298.667 298.667zM938.667 298.667l-234.667-234.667-170.667 170.667 60.373 60.373 110.293-110.293 174.293 174.293 60.373-60.373zM298.667 170.667v-128h83.051c-19.584 39.36-32.832 82.389-37.888 128h-45.163z" />
<glyph unicode="&#xe934;" glyph-name="fluorine_0052" d="M512 725.333c188.203 0 341.333-153.131 341.333-341.333s-153.131-341.333-341.333-341.333-341.333 153.131-341.333 341.333 153.131 341.333 341.333 341.333zM512 810.667c-235.733 0-426.667-190.933-426.667-426.667s190.933-426.667 426.667-426.667 426.667 190.933 426.667 426.667-190.933 426.667-426.667 426.667v0zM725.333 231.040l-60.373-60.373-152.96 152.96-152.96-152.96-60.373 60.373 152.96 152.96-152.96 152.96 60.373 60.373 152.96-152.96 152.96 152.96 60.373-60.373-152.96-152.96z" />
<glyph unicode="&#xe935;" glyph-name="fluorine_0053" d="M512 810.667c-235.733 0-426.667-190.933-426.667-426.667s190.933-426.667 426.667-426.667 426.667 190.933 426.667 426.667-190.933 426.667-426.667 426.667zM725.333 231.040l-60.373-60.373-152.96 152.96-152.96-152.96-60.373 60.373 152.96 152.96-152.96 152.96 60.373 60.373 152.96-152.96 152.96 152.96 60.373-60.373-152.96-152.96 152.96-152.96z" />
<glyph unicode="&#xe936;" glyph-name="fluorine_0054" d="M256 85.333c0-47.147 38.187-85.333 85.333-85.333h341.333c47.147 0 85.333 38.187 85.333 85.333v512h-512v-512zM810.667 725.333h-149.333l-42.667 42.667h-213.333l-42.667-42.667h-149.333v-85.333h597.333v85.333z" />
<glyph unicode="&#xe937;" glyph-name="fluorine_0055" d="M810.667 554.667h-597.333c-70.613 0-128-57.365-128-128v-256h170.667v-170.667h512v170.667h170.667v256c0 70.635-57.365 128-128 128zM682.667 85.333h-341.333v213.333h341.333v-213.333zM810.667 384c-23.659 0-42.667 19.008-42.667 42.667s19.008 42.667 42.667 42.667 42.667-19.008 42.667-42.667-19.008-42.667-42.667-42.667zM768 768h-512v-170.667h512v170.667z" />
<glyph unicode="&#xe938;" glyph-name="fluorine_0056" d="M298.667 426.667c0 164.672 133.973 298.667 298.667 298.667 14.528 0 28.693-1.387 42.667-3.413v88.747h-554.667v-853.333h554.667v174.080c-13.973-2.027-28.139-3.413-42.667-3.413-164.693 0-298.667 133.995-298.667 298.667zM1011.499 72.832l-175.296 175.317c-17.152-22.891-37.44-43.179-60.331-60.331l175.296-175.317 60.331 60.331zM836.203 248.149l-30.357 30.357c29.781 41.835 47.488 92.885 47.488 148.16 0 141.376-114.603 256-256 256s-256-114.624-256-256 114.603-256 256-256c55.275 0 106.325 17.707 148.181 47.509l30.357-30.357c22.869 17.131 43.179 37.44 60.331 60.331zM597.333 256c-94.101 0-170.667 76.565-170.667 170.667s76.565 170.667 170.667 170.667 170.667-76.565 170.667-170.667-76.565-170.667-170.667-170.667z" />
<glyph unicode="&#xe939;" glyph-name="fluorine_0057" d="M661.333 298.667h-33.92l-11.755 11.733c41.835 48.427 67.008 111.36 67.008 180.267 0 153.173-124.16 277.333-277.333 277.333s-277.333-124.16-277.333-277.333 124.16-277.333 277.333-277.333c68.907 0 131.84 25.173 180.267 66.773l11.733-11.733v-33.707l213.333-212.907 63.573 63.573-212.907 213.333zM405.333 298.667c-106.027 0-192 85.952-192 192s85.973 192 192 192 192-85.952 192-192-85.973-192-192-192z" />
<glyph unicode="&#xe93a;" glyph-name="fluorine_0058" d="M128 810.667h771.093v-85.739h-3.243l-296.576-296.555v-513.707l-171.456 171.456v342.891l-296.149 295.915h-3.669v85.739z" />
<glyph unicode="&#xe93b;" glyph-name="fluorine_0059" d="M828.992 342.4c1.707 13.632 3.008 27.52 3.008 41.6s-1.301 27.968-3.008 41.6l90.24 70.613c8.128 6.421 10.453 17.92 5.12 27.307l-85.333 147.861c-5.333 9.173-16.427 12.992-26.048 9.173l-106.219-42.88c-21.973 16.832-46.059 31.125-72.107 42.005l-15.979 113.067c-1.92 10.027-10.667 17.92-21.333 17.92h-170.667c-10.667 0-19.413-7.893-21.12-17.92l-16-113.088c-26.027-10.88-50.133-24.96-72.107-42.005l-106.24 42.88c-9.6 3.627-20.693 0-26.027-9.173l-85.333-147.861c-5.333-9.195-2.987-20.693 5.12-27.307l90.027-70.613c-1.707-13.611-2.987-27.499-2.987-41.579s1.28-27.968 2.987-41.6l-90.027-70.613c-8.107-6.421-10.453-17.92-5.12-27.307l85.333-147.861c5.333-9.152 16.427-12.992 26.027-9.152l106.24 42.88c21.973-16.832 46.080-31.125 72.107-42.005l16-113.088c1.707-10.027 10.453-17.92 21.12-17.92h170.667c10.667 0 19.413 7.893 21.12 17.92l16 113.088c26.027 10.88 50.133 24.96 72.107 42.005l106.24-42.88c9.6-3.627 20.715 0 26.048 9.173l85.333 147.861c5.333 9.195 2.987 20.693-5.12 27.307l-90.069 70.592zM512 234.667c-82.56 0-149.333 66.773-149.333 149.333s66.773 149.333 149.333 149.333 149.333-66.773 149.333-149.333-66.773-149.333-149.333-149.333z" />
<glyph unicode="&#xe93c;" glyph-name="fluorine_0060" d="M810.667 341.333h-256v-256h-85.333v256h-256v85.333h256v256h85.333v-256h256v-85.333z" />
<glyph unicode="&#xe93d;" glyph-name="fluorine_0061" d="M554.667 597.333h-85.333v-170.667h-170.667v-85.333h170.667v-170.667h85.333v170.667h170.667v85.333h-170.667v170.667zM512 810.667c-235.733 0-426.667-190.933-426.667-426.667s190.933-426.667 426.667-426.667 426.667 190.933 426.667 426.667-190.933 426.667-426.667 426.667zM512 42.667c-188.16 0-341.333 153.173-341.333 341.333s153.173 341.333 341.333 341.333c188.16 0 341.333-153.173 341.333-341.333s-153.173-341.333-341.333-341.333z" />
<glyph unicode="&#xe93e;" glyph-name="fluorine_0062" d="M512 810.667c-235.733 0-426.667-190.933-426.667-426.667s190.933-426.667 426.667-426.667 426.667 190.933 426.667 426.667-190.933 426.667-426.667 426.667zM725.333 341.333h-170.667v-170.667h-85.333v170.667h-170.667v85.333h170.667v170.667h85.333v-170.667h170.667v-85.333z" />
<glyph unicode="&#xe93f;" glyph-name="fluorine_0063" d="M170.667 554.667h170.667v170.667h-170.667v-170.667zM426.667 42.667h170.667v170.667h-170.667v-170.667zM170.667 42.667h170.667v170.667h-170.667v-170.667zM170.667 298.667h170.667v170.667h-170.667v-170.667zM426.667 298.667h170.667v170.667h-170.667v-170.667zM682.667 725.333v-170.667h170.667v170.667h-170.667zM426.667 554.667h170.667v170.667h-170.667v-170.667zM682.667 298.667h170.667v170.667h-170.667v-170.667zM682.667 42.667h170.667v170.667h-170.667v-170.667z" />
<glyph unicode="&#xe940;" glyph-name="fluorine_0064" d="M128 213.333h768v-85.333h-768v85.333zM128 640h768v-85.333h-768v85.333zM128 426.667h768v-85.333h-768v85.333z" />
<glyph unicode="&#xe941;" glyph-name="fluorine_0065" d="M753.067 625.067c-61.653 61.867-146.773 100.267-241.067 100.267-188.587 0-340.907-152.747-340.907-341.333s152.32-341.333 340.907-341.333c158.933 0 292.032 108.8 329.813 256h-88.747c-35.179-99.413-129.472-170.667-241.067-170.667-141.44 0-256 114.56-256 256s114.56 256 256 256c70.635 0 133.952-29.44 180.267-75.733l-137.6-137.6h298.667v298.667l-100.267-100.267z" />
<glyph unicode="&#xe942;" glyph-name="fluorine_0066" d="M256 469.333c-47.147 0-85.333-38.187-85.333-85.333s38.187-85.333 85.333-85.333 85.333 38.187 85.333 85.333-38.187 85.333-85.333 85.333zM768 469.333c-47.147 0-85.333-38.187-85.333-85.333s38.187-85.333 85.333-85.333 85.333 38.187 85.333 85.333-38.187 85.333-85.333 85.333zM512 469.333c-47.147 0-85.333-38.187-85.333-85.333s38.187-85.333 85.333-85.333 85.333 38.187 85.333 85.333-38.187 85.333-85.333 85.333z" />
<glyph unicode="&#xe943;" glyph-name="fluorine_0067" d="M430.293 231.040l60.373-60.373 213.333 213.333-213.333 213.333-60.373-60.373 110.293-110.293h-412.587v-85.333h412.587l-110.293-110.293zM810.667 768h-597.333c-47.147 0-85.333-38.187-85.333-85.333v-170.667h85.333v170.667h597.333v-597.333h-597.333v170.667h-85.333v-170.667c0-47.147 38.187-85.333 85.333-85.333h597.333c47.147 0 85.333 38.187 85.333 85.333v597.333c0 47.147-38.187 85.333-85.333 85.333z" />
<glyph unicode="&#xe944;" glyph-name="fluorine_0068" d="M768 554.667h-42.667v85.333c0 117.76-95.573 213.333-213.333 213.333s-213.333-95.573-213.333-213.333v-85.333h-42.667c-47.147 0-85.333-38.187-85.333-85.333v-426.667c0-47.147 38.187-85.333 85.333-85.333h512c47.147 0 85.333 38.187 85.333 85.333v426.667c0 47.147-38.187 85.333-85.333 85.333zM644.267 554.667h-264.533v85.333c0 72.96 59.307 132.267 132.267 132.267s132.267-59.307 132.267-132.267v-85.333zM768 42.667h-512v426.667h512v-426.667z" />
<glyph unicode="&#xe945;" glyph-name="fluorine_0069" d="M853.333 554.667h-512c-47.147 0-85.333-38.187-85.333-85.333v-426.667c0-47.147 38.187-85.333 85.333-85.333h512c47.147 0 85.333 38.187 85.333 85.333v426.667c0 47.147-38.187 85.333-85.333 85.333zM853.333 42.667h-512v426.667h512v-426.667zM123.733 640c0 72.96 59.307 132.267 132.267 132.267s132.267-59.307 132.267-132.267v-85.333h81.067v85.333c0 117.76-95.573 213.333-213.333 213.333s-213.333-95.573-213.333-213.333v-85.333h81.067v85.333z" />
<glyph unicode="&#xe946;" glyph-name="fluorine_0070" d="M128 160v-160h160l472.107 472.107-160 160-472.107-472.107zM883.413 595.413c16.619 16.619 16.619 43.733 0 60.373l-99.627 99.627c-16.64 16.619-43.755 16.619-60.373 0l-78.080-78.080 160-160 78.080 78.080z" />
<glyph unicode="&#xe947;" glyph-name="fluorine_0071" d="M411.307 570.048c9.6 21.333 15.36 44.992 15.36 69.952 0 94.293-76.373 170.667-170.667 170.667s-170.667-76.373-170.667-170.667 76.373-170.667 170.667-170.667c24.96 0 48.64 5.76 69.973 15.381l100.693-100.715-100.693-100.715c-21.333 9.621-45.013 15.381-69.973 15.381-94.293 0-170.667-76.373-170.667-170.667s76.373-170.667 170.667-170.667 170.667 76.373 170.667 170.667c0 24.96-5.76 48.619-15.36 69.952l100.693 100.715 298.667-298.667h128v42.667l-527.36 527.381zM256 554.667c-47.147 0-85.333 38.187-85.333 85.333s38.187 85.333 85.333 85.333 85.333-38.187 85.333-85.333-38.187-85.333-85.333-85.333zM256 42.667c-47.147 0-85.333 38.187-85.333 85.333s38.187 85.333 85.333 85.333 85.333-38.187 85.333-85.333-38.187-85.333-85.333-85.333zM512 362.667c-11.733 0-21.333 9.6-21.333 21.333s9.6 21.333 21.333 21.333 21.333-9.6 21.333-21.333-9.6-21.333-21.333-21.333zM810.667 768l-256-256 85.333-85.333 298.667 298.667v42.667h-128z" />
<glyph unicode="&#xe948;" glyph-name="fluorine_0072" d="M853.333 597.333v-597.333h-469.333v597.333h469.333zM853.333 682.667h-469.333c-47.147 0-85.333-38.187-85.333-85.333v-597.333c0-47.147 38.187-85.333 85.333-85.333h469.333c47.147 0 85.333 38.187 85.333 85.333v597.333c0 47.147-38.187 85.333-85.333 85.333v0zM170.667 170.667v597.333h469.333v-42.667h85.333v42.667c0 47.147-38.187 85.333-85.333 85.333h-469.333c-47.147 0-85.333-38.187-85.333-85.333v-597.333c0-47.147 38.187-85.333 85.333-85.333h85.333v85.333h-85.333z" />
<glyph unicode="&#xe949;" glyph-name="fluorine_0073" d="M174.229 42.667v682.667h85.333v-128h426.667v128h85.333v-170.667h85.333v170.667c0 47.147-38.187 85.333-85.333 85.333h-178.56c-17.472 49.493-64.448 85.333-120.107 85.333-55.68 0-102.613-35.84-120.107-85.333h-178.56c-47.147 0-85.333-38.187-85.333-85.333v-682.667c0-47.147 38.187-85.333 85.333-85.333h252.437v85.333h-252.437zM472.896 810.667c23.467 0 42.667-19.008 42.667-42.667s-19.2-42.667-42.667-42.667c-23.467 0-42.667 19.008-42.667 42.667s19.2 42.667 42.667 42.667zM899.563 426.667v-469.333h-337.792v469.333h337.792zM899.563 512h-337.792c-47.147 0-85.333-38.187-85.333-85.333v-469.333c0-47.147 38.187-85.333 85.333-85.333h337.771c47.147 0 85.333 38.187 85.333 85.333v469.333c0.021 47.147-38.187 85.333-85.312 85.333v0z" />
<glyph unicode="&#xe94a;" glyph-name="fluorine_0074" d="M533.333 554.667c-112.853 0-215.68-42.048-294.4-110.933l-153.6 153.6v-384h384l-154.24 154.24c59.093 49.728 134.827 80.427 218.24 80.427 151.253 0 279.253-98.325 324.032-234.667l100.907 33.301c-58.645 178.731-226.539 308.032-424.939 308.032z" />
<glyph unicode="&#xe94b;" glyph-name="fluorine_0075" d="M784.853 443.733c-78.528 68.885-181.333 110.933-294.187 110.933-198.4 0-366.293-129.301-424.96-308.032l100.907-33.301c44.8 136.341 172.8 234.667 324.053 234.667 83.413 0 159.147-30.699 218.24-80.427l-154.24-154.24h384v384l-153.813-153.6z" />
<glyph unicode="&#xe94c;" glyph-name="fluorine_0076" d="M810.667 512h-170.667v256h-256v-256h-170.667l298.667-298.667 298.667 298.667zM213.333 128v-85.333h597.333v85.333h-597.333z" />
<glyph unicode="&#xe94d;" glyph-name="fluorine_0077" d="M384 213.333h256v256h170.667l-298.667 298.667-298.667-298.667h170.667v-256zM213.333 128h597.333v-85.333h-597.333v85.333z" />
<glyph unicode="&#xe94e;" glyph-name="fluorine_0078" d="M853.333 810.667h-682.667c-47.125 0-85.333-38.208-85.333-85.333v-682.667c0-47.125 38.208-85.333 85.333-85.333h682.667c47.125 0 85.333 38.208 85.333 85.333v682.667c0 47.125-38.208 85.333-85.333 85.333zM853.333 42.667h-682.667v682.667h682.667v-682.667zM597.333 170.667c0-47.128-38.205-85.333-85.333-85.333s-85.333 38.205-85.333 85.333c0 47.128 38.205 85.333 85.333 85.333s85.333-38.205 85.333-85.333zM426.667 640h170.667v-341.333h-170.667v341.333z" />
<glyph unicode="&#xe94f;" glyph-name="fluorine_0079" d="M853.333 725.333v-510.229l85.333-85.333v595.563c0 47.125-38.208 85.333-85.333 85.333h-595.563l85.333-85.333h510.229zM597.333 640h-168.896l168.896-168.896zM511.957 256c-47.083 0-85.291-38.165-85.291-85.333s38.208-85.333 85.291-85.333c47.168 0 85.376 38.165 85.376 85.333s-38.208 85.333-85.376 85.333zM981.333-30.443l-905.088 905.109-60.352-60.352 71.488-71.488c-1.195-5.653-2.048-11.456-2.048-17.493v-682.667c0-47.125 38.208-85.333 85.333-85.333h682.667c6.037 0 11.84 0.832 17.515 2.048l50.155-50.155 60.331 60.331zM170.667 42.667v616.875l256-256v-104.875h104.896l256-256h-616.896z" />
<glyph unicode="&#xe950;" glyph-name="fluorine_0080" d="M938.667 725.333v-682.667c0-47.125-38.208-85.333-85.333-85.333h-682.667c-47.125 0-85.333 38.208-85.333 85.333v682.667c0 47.125 38.208 85.333 85.333 85.333h682.667c47.125 0 85.333-38.208 85.333-85.333zM853.333 213.333h-85.333v-85.333h85.333v85.333zM853.333 640h-85.333v-341.333h85.333v341.333zM682.667 298.667l-256 256-256-256h512z" />
<glyph unicode="&#xe951;" glyph-name="fluorine_0081" d="M768 213.333h85.333v-85.333h-85.333v85.333zM768 640h85.333v-341.333h-85.333v341.333zM725.333 384l-298.667 298.667-298.667-298.667h597.333zM725.333 128l-298.667 298.667-298.667-298.667h597.333z" />
<glyph unicode="&#xe952;" glyph-name="fluorine_0082" d="M768 213.333h85.333v-85.333h-85.333v85.333zM768 640h85.333v-341.333h-85.333v341.333zM725.333 298.667l-298.667 298.667-298.667-298.667h597.333z" />
<glyph unicode="&#xe954;" glyph-name="fluorine_0084" d="M853.333 213.333h-51.243l51.243-51.243zM768 640h85.333v-341.333h-85.333v341.333zM725.333 426.667h-136.576l68.288-68.288zM874.667 17.664l-279.168 279.168 1.216 1.216-128.64 128.619h-2.411l-315.072 315.093-60.352-60.352 254.763-254.741h-217.003l298.667-298.667 108.501 108.501 279.168-279.168z" />
<glyph unicode="&#xe955;" glyph-name="fluorine_0085" d="M853.333 640h-341.333l-85.333 85.333h-256c-47.147 0-84.907-38.187-84.907-85.333l-0.427-512c0-47.147 38.187-85.333 85.333-85.333h682.667c47.147 0 85.333 38.187 85.333 85.333v426.667c0 47.147-38.187 85.333-85.333 85.333z" />
<glyph unicode="&#xe956;" glyph-name="fluorine_0086" d="M853.333 640h-341.333l-85.333 85.333h-256c-47.147 0-84.907-38.187-84.907-85.333l-0.427-512c0-47.147 38.187-85.333 85.333-85.333h682.667c47.147 0 85.333 38.187 85.333 85.333v426.667c0 47.147-38.187 85.333-85.333 85.333zM853.333 128h-682.667v426.667h682.667v-426.667z" />
<glyph unicode="&#xe957;" glyph-name="fluorine_0087" d="M853.333 554.667v-512c0-47.125-38.208-85.333-85.333-85.333h-512c-47.125 0-85.333 38.208-85.333 85.333v682.667c0 47.125 38.208 85.333 85.333 85.333h341.333l256-256zM640 384h-298.667v-85.333h298.667v85.333zM554.667 213.333h-213.333v-85.333h213.333v85.333zM554.667 746.667v-234.667h234.667l-234.667 234.667z" />
<glyph unicode="&#xe958;" glyph-name="fluorine_0088" d="M597.333 810.667h-341.333c-47.125 0-85.333-38.208-85.333-85.333v-682.667c0-47.125 38.208-85.333 85.333-85.333h512c47.125 0 85.333 38.208 85.333 85.333v512l-256 256zM597.333 689.984l135.317-135.317h-135.317v135.317zM768 42.667h-512v682.667h256v-256h256v-426.667zM341.333 384h298.667v-85.333h-298.667v85.333zM341.333 213.333h213.333v-85.333h-213.333v85.333z" />
<glyph unicode="&#xe959;" glyph-name="fluorine_0089" d="M814.229 810.667h-178.56c-17.472 49.493-64.448 85.333-120.107 85.333-55.68 0-102.613-35.84-120.107-85.333h-178.56c-47.147 0-85.333-38.187-85.333-85.333v-682.667c0-47.147 38.187-85.333 85.333-85.333h597.333c47.147 0 85.333 38.187 85.333 85.333v682.667c0 47.147-38.187 85.333-85.333 85.333zM515.563 810.667c23.467 0 42.667-19.008 42.667-42.667s-19.2-42.667-42.667-42.667c-23.467 0-42.667 19.008-42.667 42.667s19.2 42.667 42.667 42.667zM814.229 42.667h-597.333v682.667h85.333v-128h426.667v128h85.333v-682.667z" />
<glyph unicode="&#xe95a;" glyph-name="fluorine_0090" d="M896-85.333c0 0 0 220.843-54.869 331.285-54.827 110.464-274.24 110.464-274.24 165.632 0 55.253 109.717 110.421 109.717 220.885s-82.325 220.864-192.021 220.864-192-110.421-192-220.885 109.717-165.632 109.717-220.885c0-55.168-164.587-55.168-219.413-165.632-54.891-110.421-54.891-331.264-54.891-331.264h768z" />
<glyph unicode="&#xe95b;" glyph-name="fluorine_0091" d="M675.136 252.373c28.779-57.877 41.003-145.024 46.251-209.707h259.947c0 0 0 159.467-39.701 239.211-39.552 79.829-197.909 79.829-197.909 119.573 0 39.957 79.168 79.829 79.168 159.573 0 79.701-59.456 159.509-138.667 159.509-79.168 0-138.667-79.787-138.667-159.509 0-79.744 79.211-119.616 79.211-159.573 0-22.507-38.080-32.299-78.293-51.008 50.24-18.965 103.211-46.784 128.661-98.069zM408.427 371.456c0 45.995 91.413 92.032 91.413 184.043 0 92.032-68.587 184.085-160 184.085s-160-92.032-160-184.085c0-92.011 91.413-138.048 91.413-184.043s-137.173-45.995-182.827-138.048c-45.76-91.989-45.76-276.075-45.76-276.075h640c0 0 0 184.085-45.76 276.075-45.653 92.053-228.48 92.053-228.48 138.048z" />
<glyph unicode="&#xe95c;" glyph-name="fluorine_0092" d="M408.427 371.456c0 45.995 91.413 92.032 91.413 184.043 0 92.032-68.587 184.085-160 184.085s-160-92.032-160-184.085c0-92.011 91.413-138.048 91.413-184.043s-137.173-45.995-182.827-138.048c-45.76-91.989-45.76-276.075-45.76-276.075h640c0 0 0 184.085-45.76 276.075-45.653 92.053-228.48 92.053-228.48 138.048z" />
<glyph unicode="&#xe95d;" glyph-name="fluorine_0093" d="M896-85.333h-768v36.053c0 8.747 0.64 213.419 53.355 321.621 33.536 68.864 101.376 98.027 150.827 119.275 15.317 6.677 35.669 15.36 43.541 21.504-3.371 9.707-17.536 27.413-28.331 40.661-29.675 36.757-70.336 87.104-70.336 159.552 0 115.947 84.459 240 210.112 240s210.112-124.053 210.112-240.021c0-72.427-40.683-122.773-70.315-159.531-9.899-12.203-22.677-28.139-27.264-38.251 11.733-6.72 37.888-15.36 57.813-22.059 63.488-21.077 150.421-49.899 185.152-121.173 52.693-108.16 53.333-312.832 53.333-321.579v-36.053zM201.408-13.099h621.163c-2.453 61.205-11.605 185.195-45.12 253.931-21.355 43.904-88.725 66.219-142.827 84.224-56.107 18.603-109.163 36.16-109.163 84.416 0 33.856 21.888 60.885 45.013 89.621 26.688 33.067 54.315 67.243 54.315 114.219 0 79.424-56.512 167.787-137.621 167.787s-137.643-88.384-137.643-167.787c0-46.955 27.627-81.152 54.336-114.219 23.125-28.757 45.035-55.765 45.035-89.621 0-46.336-44.715-65.557-87.979-84.117-43.413-18.624-92.587-39.744-114.368-84.501-33.579-68.864-42.688-192.896-45.141-253.952z" />
<glyph unicode="&#xe95e;" glyph-name="fluorine_0094" d="M483.883 361.643c-15.659 5.269-36.053 12.096-46.123 17.536 4.203 8.299 14.421 21.077 21.739 30.251 24.747 30.955 58.603 73.365 58.603 134.571 0 97.877-70.699 202.667-175.979 202.667s-176-104.789-176-202.667c0-61.184 33.877-103.595 58.624-134.571 8-10.048 19.499-24.427 22.763-32.469-6.891-4.885-22.635-11.733-34.603-16.939-41.28-17.941-97.813-42.496-125.888-100.779-43.861-90.88-44.352-262.613-44.352-269.888v-32h640v32c0 7.275-0.491 179.008-44.331 269.888-29.056 60.309-101.525 84.651-154.453 102.4zM107.435 21.355c2.475 58.731 11.669 157.099 37.227 210.112 17.749 36.864 58.112 54.4 93.739 69.845 36.395 15.808 74.005 32.171 74.005 72.021 0 28.885-18.283 51.797-37.675 76.032-21.931 27.456-44.629 55.851-44.629 94.635 0 65.579 45.995 138.667 112 138.667 65.984 0 111.979-73.088 111.979-138.667 0-38.763-22.677-67.157-44.608-94.635-19.371-24.256-37.653-47.147-37.653-76.032 0-41.579 44.544-56.512 91.691-72.363 44.459-14.912 99.797-33.493 117.163-69.525 27.307-56.619 34.987-158.4 37.141-210.112h-510.379zM944 320.832c-25.152 51.797-86.507 72.256-131.328 87.168-10.347 3.456-23.339 7.787-32.021 11.52 3.925 5.867 9.856 13.269 14.336 18.859 21.035 26.176 49.856 61.995 49.856 114.411 0 83.328-60.843 172.565-151.403 172.565-69.419 0-121.259-52.437-141.739-114.411-6.251-18.923-9.707-38.677-9.707-58.155 0-22.037 5.248-41.024 12.715-57.707 10.304-22.997 24.96-41.557 37.163-56.725 5.099-6.336 12.117-15.040 15.851-20.971-6.229-3.413-15.893-7.573-23.552-10.88-12.971-5.589-27.712-11.989-42.347-20.288 23.701-9.259 48.491-21.056 71.317-36.885 29.376 12.736 61.099 27.776 61.099 62.912 0 25.856-16.512 46.4-32.512 66.24-17.579 21.824-35.733 44.437-35.733 74.304 0 51.349 35.904 108.565 87.445 108.565 50.027 0 87.403-57.323 87.403-108.565 0-29.888-18.176-52.48-35.733-74.304-15.979-19.883-32.491-40.427-32.491-66.24 0-38.357 38.763-51.264 79.808-64.939 35.904-11.968 80.597-26.859 93.973-54.421 19.925-41.024 27.627-116.501 30.016-164.864h-200.597c3.029-22.72 5.12-44.587 6.528-64h258.987v32c0 6.037-0.427 148.779-37.333 224.811z" />
<glyph unicode="&#xe95f;" glyph-name="fluorine_0095" d="M596.011 768v-85.333h153.003l-138.368-138.347c-45.739 33.195-101.803 53.013-162.645 53.013-153.173 0-277.333-124.16-277.333-277.333s124.16-277.333 277.333-277.333 277.333 124.16 277.333 277.333c0 61.525-20.267 118.165-54.165 164.16l138.176 138.176v-153.003h85.333l1.323 298.667h-299.989zM448 128c-105.856 0-192 86.123-192 192s86.144 192 192 192 192-86.123 192-192-86.144-192-192-192z" />
<glyph unicode="&#xe960;" glyph-name="fluorine_0096" d="M789.333 490.667c0 153.173-124.16 277.333-277.333 277.333s-277.333-124.16-277.333-277.333c0-138.624 101.803-253.141 234.667-273.707v-131.627h-106.667v-85.333h106.667v-106.667h85.333v106.667h106.667v85.333h-106.667v131.627c132.864 20.565 234.667 135.083 234.667 273.707zM320 490.667c0 105.877 86.144 192 192 192s192-86.123 192-192-86.144-192-192-192-192 86.123-192 192z" />
<glyph unicode="&#xe961;" glyph-name="fluorine_0097" d="M682.965 853.632v-85.333h153.003l-191.019-190.997c-37.803 26.027-83.563 41.365-132.949 41.365-49.728 0-95.765-15.552-133.717-41.963l-41.301 41.301 76.565 76.544-60.331 60.331-76.565-76.544-88.32 88.32h153.003v85.333l-298.667 1.344v-300.011h85.333v153.003l88.341-88.341-75.221-75.2 60.331-60.331 75.221 75.2 41.472-41.472c-25.728-37.632-40.811-83.136-40.811-132.181 0-115.029 82.795-210.517 192-230.613v-89.387h-106.667v-85.333h106.667l-0.341-106.667h85.333l0.341 106.667h106.667v85.333h-106.667v89.387c109.205 20.075 192 115.584 192 230.613 0 49.365-15.339 95.147-41.387 132.949l191.019 190.997v-153.003h85.333l1.344 298.667h-300.011zM512 234.667c-82.347 0-149.333 67.008-149.333 149.333s66.987 149.333 149.333 149.333 149.333-67.008 149.333-149.333-66.987-149.333-149.333-149.333z" />
<glyph unicode="&#xe962;" glyph-name="fluorine_0098" d="M638.677 896v-85.333h153.003l-138.368-138.347c-45.739 33.195-101.803 53.013-162.645 53.013-153.173 0-277.333-124.16-277.333-277.333 0-138.368 101.461-252.757 233.963-273.6l-1.963-110.4h-106.667v-85.333h106.667v-106.667h85.333v106.667h106.667v85.333h-106.667l1.963 110.165c133.205 20.288 235.371 134.976 235.371 273.835 0 61.525-20.267 118.165-54.165 164.16l138.176 138.176v-153.003h85.333l1.323 298.667h-299.989zM490.667 256c-105.856 0-192 86.123-192 192s86.144 192 192 192 192-86.123 192-192-86.144-192-192-192z" />
<glyph unicode="&#xe963;" glyph-name="fluorine_0099" d="M320 576c105.856 0 192-86.123 192-192s-86.144-192-192-192-192 86.123-192 192 86.144 192 192 192zM320 661.333c-153.173 0-277.333-124.16-277.333-277.333s124.16-277.333 277.333-277.333 277.333 124.16 277.333 277.333-124.16 277.333-277.333 277.333v0zM768 256h85.333v-85.333h-85.333v85.333zM810.667 682.667c-94.293 0-170.667-76.373-170.667-170.667h85.333c0 46.912 38.4 85.333 85.333 85.333 46.912 0 85.333-38.421 85.333-85.333 0-85.333-128-74.667-128-213.333h85.333c0 96 128 106.667 128 213.333 0 94.293-76.373 170.667-170.667 170.667z" />
<glyph unicode="&#xe964;" glyph-name="fluorine_0100" d="M825.813 467.84c-29.013 146.795-158.528 257.493-313.813 257.493-123.307 0-230.187-69.952-283.733-172.16-128.213-13.888-228.267-122.475-228.267-254.507 0-141.44 114.56-256 256-256h554.667c117.76 0 213.333 95.573 213.333 213.333 0 112.619-87.659 203.968-198.187 211.84z" />
<glyph unicode="&#xe965;" glyph-name="fluorine_0101" d="M512 810.667c-235.648 0-426.667-191.019-426.667-426.667s191.019-426.667 426.667-426.667 426.667 191.019 426.667 426.667-191.019 426.667-426.667 426.667zM512 746.667c86.805 0 162.155-30.72 224.64-81.771-6.805-12.501-11.307-27.925-32.64-29.824 0-10.453 0-20.949 0-31.445 21.333-7.573 27.243-3.285 22.251-20.949 10.283-4.885 20.437 9.493 23.595 0-14.379-4.544-27.2-9.643-38.187-17.515-10.411 19.264-17.728 24.171-17.387 48.96-14.677 1.451-14.229-11.499-31.979-6.997-1.707-10.965 5.269-13.632 7.36-20.907-12.885 1.621-16.576-13.056-21.461-28.011 14.656-7.083 22.507-10.325 35.819-13.931-0.533-4.075-5.632-3.819-10.688-3.52-1.195-15.125 19.84-8.597 17.92-24.448-5.248-5.099-23.467-5.099-28.672 0-2.005-12.075-12.715-15.488-10.731-31.445 5.525-7.467 7.957-17.877 17.963-20.992-24.512-21.504-57.749-62.528-50.176-101.312 3.947-20.096 32.555-48.619 53.717-52.459 23.083-4.075 52.096 22.613 64.448-3.456-14.123-22.101 15.509-28.16 14.251-48.896-1.899-10.944-10.731-15.061-14.251-24.448 6.848-14.955 19.051-47.936 7.232-59.456 9.707-2.581 7.104 10.411 14.251 10.453 4.907-13.973 8.085-34.965 17.92-34.965 1.493 0 3.008 0 4.501 0-66.453-85.333-162.56-124.523-269.696-124.523-6.528 0-12.907-1.109-19.371-0.768-36.416 17.408-63.573 46.208-102.165 59.819 35.904-5.803 87.872-17.067 121.749-3.947-40.384 21.099-87.659 35.456-132.501 52.096 31.787 7.552 32.491 45.141 39.467 76.821-47.424 13.291-58.603 62.229-96.192 84.949 9.6 8.704-4.885 28.309-14.315 38.4-40.789-2.517-108.971 7.893-86.485 26.837 29.632 25.003 103.936 99.307 85.376 99.307-21.739 0-55.744 74.347-55.744 92.928 0 14.528-78.187-61.76-76.203-35.008-1.387-2.219-2.304-4.864-3.563-7.168 51.093 138.453 183.979 237.589 339.947 237.589zM247.232 194.837c-14.848 9.899-24.747 24.725-39.36 34.901 9.515 5.653 5.248 11.051 0 17.451-11.307 4.011-8.768-5.419-14.379-6.976-6.997 9.28-15.381 17.131-23.787 25.003-4.523 12.971-8.427 26.219-11.477 39.829 34.795-7.616 51.051-44.736 78.187-47.339-8.917-27.051-5.163-45.184 10.816-62.869z" />
<glyph unicode="&#xe966;" glyph-name="fluorine_0102" d="M704 640v-490.667c0-94.293-76.373-170.667-170.667-170.667s-170.667 76.373-170.667 170.667v533.333c0 58.88 47.787 106.667 106.667 106.667s106.667-47.787 106.667-106.667v-448c0-23.467-19.008-42.667-42.667-42.667-23.68 0-42.667 19.2-42.667 42.667v405.333h-64v-405.333c0-58.88 47.787-106.667 106.667-106.667s106.667 47.787 106.667 106.667v448c0 94.293-76.373 170.667-170.667 170.667s-170.667-76.373-170.667-170.667v-533.333c0-129.707 105.173-234.667 234.667-234.667s234.667 104.96 234.667 234.667v490.667h-64z" />
<glyph unicode="&#xe967;" glyph-name="fluorine_0103" d="M853.333 725.333h-682.667c-47.147 0-84.907-38.187-84.907-85.333l-0.427-512c0-47.147 38.187-85.333 85.333-85.333h682.667c47.147 0 85.333 38.187 85.333 85.333v512c0 47.147-38.187 85.333-85.333 85.333zM853.333 554.667l-341.333-213.333-341.333 213.333v85.333l341.333-213.333 341.333 213.333v-85.333z" />
<glyph unicode="&#xe968;" glyph-name="fluorine_0104" d="M682.667-47.424c0 0 0 171.755-42.667 257.664-42.667 85.931-213.333 85.931-213.333 128.853 0 42.965 85.333 85.867 85.333 171.797 0 85.888-64 171.776-149.333 171.776s-149.333-85.888-149.333-171.797c0-85.909 85.333-128.832 85.333-171.797 0-42.923-128-42.923-170.667-128.832s-42.667-257.664-42.667-257.664h597.333zM938.667 597.333v42.667l-170.667-106.667-170.667 106.667v-42.667l170.667-106.667 170.667 106.667zM981.333 384h-426.667v298.667h426.667v-298.667z" />
<glyph unicode="&#xe969;" glyph-name="fluorine_0105" d="M853.333 810.667h-682.667c-47.147 0-84.907-38.187-84.907-85.333l-0.427-768 170.667 170.667h597.333c47.147 0 85.333 38.187 85.333 85.333v512c0 47.147-38.187 85.333-85.333 85.333zM256 512h512v-85.333h-512v85.333zM597.333 298.667h-341.333v85.333h341.333v-85.333zM768 554.667h-512v85.333h512v-85.333z" />
<glyph unicode="&#xe96a;" glyph-name="fluorine_0106" d="M938.24 725.333c0 47.147-37.781 85.333-84.907 85.333h-682.667c-47.147 0-85.333-38.187-85.333-85.333v-512c0-47.147 38.187-85.333 85.333-85.333h597.333l170.667-170.667-0.427 768zM768 298.667h-512v85.333h512v-85.333zM768 426.667h-512v85.333h512v-85.333zM768 554.667h-512v85.333h512v-85.333z" />
<glyph unicode="&#xe96b;" glyph-name="fluorine_0107" d="M896 640h-85.333v-384h-554.667v-85.333c0-23.467 19.2-42.667 42.667-42.667h469.333l170.667-170.667v640c0 23.467-19.2 42.667-42.667 42.667zM725.333 384v384c0 23.467-19.2 42.667-42.667 42.667h-554.667c-23.467 0-42.667-19.2-42.667-42.667v-597.333l170.667 170.667h426.667c23.467 0 42.667 19.2 42.667 42.667z" />
<glyph unicode="&#xe96c;" glyph-name="fluorine_0108" d="M853.333 810.667h-682.667c-47.147 0-85.333-38.187-85.333-85.333v-768l170.667 170.667h597.333c47.147 0 85.333 38.187 85.333 85.333v512c0 47.147-38.187 85.333-85.333 85.333zM853.333 213.333h-597.333l-85.333-85.333v597.333h682.667v-512z" />
<glyph unicode="&#xe96d;" glyph-name="fluorine_0109" d="M85.333 725.333v-512c0-47.147 38.187-85.333 85.333-85.333h597.333l170.667-170.667v768c0 47.147-38.187 85.333-85.333 85.333h-682.667c-47.147 0-85.333-38.187-85.333-85.333zM170.667 725.333h682.667v-597.333l-85.333 85.333h-597.333v512z" />
<glyph unicode="&#xe96e;" glyph-name="fluorine_0110" d="M768 209.707c-32.427 0-61.675-12.587-83.84-32.853l-304 177.28c2.347 9.6 3.84 19.627 3.84 29.867s-1.493 20.267-3.84 29.867l300.8 175.552c22.827-21.333 53.333-34.56 87.040-34.56 70.635 0 128 57.387 128 128 0 70.635-57.365 128-128 128s-128-57.365-128-128c0-10.24 1.493-20.245 3.84-29.867l-300.8-175.552c-22.827 21.333-53.333 34.56-87.040 34.56-70.613 0-128-57.365-128-128s57.387-128 128-128c33.707 0 64.213 13.227 87.040 34.56l304-177.28c-2.133-8.96-3.413-18.347-3.413-27.968 0-68.715 55.659-124.373 124.373-124.373s124.373 55.659 124.373 124.373-55.659 124.395-124.373 124.395z" />
<glyph unicode="&#xe96f;" glyph-name="fluorine_0111" d="M384 725.333v-213.333h-213.333v213.333h213.333zM426.667 768h-298.667v-298.667h298.667v298.667zM213.333 682.667h128v-128h-128v128zM384 256v-213.333h-213.333v213.333h213.333zM426.667 298.667h-298.667v-298.667h298.667v298.667zM213.333 213.333h128v-128h-128v128zM853.333 725.333v-213.333h-213.333v213.333h213.333zM896 768h-298.667v-298.667h298.667v298.667zM682.667 682.667h128v-128h-128v128zM640 256h42.667v-42.667h-42.667v42.667zM725.333 256h42.667v-42.667h-42.667v42.667zM810.667 256h42.667v-42.667h-42.667v42.667zM853.333 213.333h42.667v-42.667h-42.667v42.667zM768 213.333h42.667v-42.667h-42.667v42.667zM682.667 213.333h42.667v-42.667h-42.667v42.667zM640 170.667h42.667v-42.667h-42.667v42.667zM725.333 170.667h42.667v-42.667h-42.667v42.667zM810.667 170.667h42.667v-42.667h-42.667v42.667zM853.333 128h42.667v-42.667h-42.667v42.667zM768 128h42.667v-42.667h-42.667v42.667zM682.667 128h42.667v-42.667h-42.667v42.667zM640 85.333h42.667v-42.667h-42.667v42.667zM725.333 85.333h42.667v-42.667h-42.667v42.667zM810.667 85.333h42.667v-42.667h-42.667v42.667zM853.333 42.667h42.667v-42.667h-42.667v42.667zM768 42.667h42.667v-42.667h-42.667v42.667zM682.667 42.667h42.667v-42.667h-42.667v42.667zM853.333 384h42.667v-42.667h-42.667v42.667zM768 384h42.667v-42.667h-42.667v42.667zM682.667 384h42.667v-42.667h-42.667v42.667zM640 341.333h42.667v-42.667h-42.667v42.667zM725.333 341.333h42.667v-42.667h-42.667v42.667zM810.667 341.333h42.667v-42.667h-42.667v42.667zM853.333 298.667h42.667v-42.667h-42.667v42.667zM768 298.667h42.667v-42.667h-42.667v42.667zM682.667 298.667h42.667v-42.667h-42.667v42.667zM554.667 256h42.667v-42.667h-42.667v42.667zM597.333 213.333h42.667v-42.667h-42.667v42.667zM512 213.333h42.667v-42.667h-42.667v42.667zM554.667 170.667h42.667v-42.667h-42.667v42.667zM597.333 128h42.667v-42.667h-42.667v42.667zM512 128h42.667v-42.667h-42.667v42.667zM554.667 85.333h42.667v-42.667h-42.667v42.667zM597.333 42.667h42.667v-42.667h-42.667v42.667zM512 42.667h42.667v-42.667h-42.667v42.667zM597.333 384h42.667v-42.667h-42.667v42.667zM512 384h42.667v-42.667h-42.667v42.667zM554.667 341.333h42.667v-42.667h-42.667v42.667zM597.333 298.667h42.667v-42.667h-42.667v42.667zM512 298.667h42.667v-42.667h-42.667v42.667zM426.667 384h42.667v-42.667h-42.667v42.667zM341.333 384h42.667v-42.667h-42.667v42.667zM256 384h42.667v-42.667h-42.667v42.667zM298.667 426.667h42.667v-42.667h-42.667v42.667zM384 426.667h42.667v-42.667h-42.667v42.667zM170.667 384h42.667v-42.667h-42.667v42.667zM128 426.667h42.667v-42.667h-42.667v42.667zM213.333 426.667h42.667v-42.667h-42.667v42.667zM469.333 256h42.667v-42.667h-42.667v42.667zM469.333 170.667h42.667v-42.667h-42.667v42.667zM469.333 85.333h42.667v-42.667h-42.667v42.667zM469.333 341.333h42.667v-42.667h-42.667v42.667zM512 640h42.667v-42.667h-42.667v42.667zM512 554.667h42.667v-42.667h-42.667v42.667zM512 469.333h42.667v-42.667h-42.667v42.667zM512 725.333h42.667v-42.667h-42.667v42.667zM469.333 682.667h42.667v-42.667h-42.667v42.667zM469.333 597.333h42.667v-42.667h-42.667v42.667zM469.333 512h42.667v-42.667h-42.667v42.667zM469.333 768h42.667v-42.667h-42.667v42.667zM469.333 426.667h42.667v-42.667h-42.667v42.667zM640 426.667h42.667v-42.667h-42.667v42.667zM725.333 426.667h42.667v-42.667h-42.667v42.667zM810.667 426.667h42.667v-42.667h-42.667v42.667zM554.667 426.667h42.667v-42.667h-42.667v42.667z" />
<glyph unicode="&#xe970;" glyph-name="fluorine_0112" d="M128 725.333h42.667v-554.667h-42.667v554.667zM213.333 725.333h64v-554.667h-64v554.667zM298.667 725.333h42.667v-554.667h-42.667v554.667zM405.333 725.333h85.333v-554.667h-85.333v554.667zM512 725.333h42.667v-554.667h-42.667v554.667zM576 725.333h64v-554.667h-64v554.667zM853.333 725.333h42.667v-554.667h-42.667v554.667zM362.667 725.333h21.333v-554.667h-21.333v554.667zM661.333 725.333h21.333v-554.667h-21.333v554.667zM746.667 725.333h64v-554.667h-64v554.667zM704 725.333h21.333v-554.667h-21.333v554.667zM150.677 92.117h-0.213l-11.904-5.675-2.389 10.944 16.512 7.68h12.096v-62.4h-14.101v49.451zM185.323 42.667v8.832l8.064 7.296c13.632 12.203 20.267 19.2 20.437 26.517 0 5.077-3.072 9.109-10.261 9.109-5.376 0-10.091-2.688-13.355-5.163l-4.117 10.453c4.715 3.563 12.011 6.443 20.459 6.443 14.123 0 21.888-8.277 21.888-19.605 0-10.453-7.573-18.816-16.597-26.88l-5.781-4.821v-0.192h23.531v-11.989h-44.267zM281.984 72.725v-9.707h-25.152v9.707h25.152zM354.368 74.176c0-19.307-7.787-32.555-23.723-32.555-16.128 0-23.232 14.507-23.339 32.171 0 18.069 7.68 32.384 23.808 32.384 16.725-0.021 23.253-14.933 23.253-32zM322.005 73.771c-0.085-14.293 3.371-21.12 9.024-21.12s8.747 7.104 8.747 21.333c0 13.803-2.987 21.12-8.832 21.12-5.376 0-9.024-6.827-8.939-21.333zM380.203 92.117h-0.192l-11.904-5.675-2.389 10.944 16.512 7.68h12.096v-62.4h-14.123v49.451zM414.848 42.667v8.832l8.064 7.296c13.632 12.203 20.267 19.2 20.437 26.517 0 5.077-3.072 9.109-10.261 9.109-5.376 0-10.091-2.688-13.355-5.163l-4.117 10.453c4.715 3.563 12.011 6.443 20.459 6.443 14.123 0 21.888-8.277 21.888-19.605 0-10.453-7.573-18.816-16.597-26.88l-5.781-4.821v-0.192h23.531v-11.989h-44.267zM470.72 56.981c2.603-1.344 8.555-3.861 14.507-3.861 7.573 0 11.435 3.669 11.435 8.363 0 6.144-6.144 8.939-12.587 8.939h-5.952v10.475h5.675c4.885 0.085 11.136 1.92 11.136 7.189 0 3.755-3.072 6.549-9.216 6.549-5.077 0-10.475-2.219-13.056-3.755l-2.965 10.56c3.733 2.389 11.221 4.715 19.307 4.715 13.333 0 20.736-7.019 20.736-15.552 0-6.635-3.755-11.819-11.435-14.507v-0.192c7.488-1.344 13.547-7.019 13.547-15.168 0-11.072-9.707-19.115-25.536-19.115-8.064 0-14.891 2.133-18.539 4.416l2.944 10.944zM547.243 42.667v14.869h-27.648v9.515l23.616 38.016h17.856v-36.587h7.488v-10.965h-7.488v-14.848h-13.824zM547.243 68.501v13.824c0 3.733 0.192 7.573 0.469 11.605h-0.384c-2.005-4.011-3.648-7.659-5.76-11.605l-8.363-13.653v-0.192h14.037zM616.363 93.077h-24.192l-1.344-9.6c1.344 0.192 2.496 0.192 4.032 0.192 5.952 0 12.011-1.344 16.427-4.501 4.693-3.179 7.573-8.363 7.573-15.659 0-11.627-9.984-21.888-26.795-21.888-7.573 0-13.931 1.728-17.387 3.563l2.603 10.944c2.773-1.344 8.448-3.072 14.123-3.072 6.059 0 12.48 2.88 12.48 9.493 0 6.443-5.099 10.368-17.579 10.368-3.456 0-5.867-0.192-8.448-0.576l4.139 32.747h34.368v-12.011zM667.819 94.699c-1.643 0.107-3.371 0-5.675-0.192-12.949-1.067-18.731-7.68-20.352-14.976h0.277c3.072 3.157 7.403 4.992 13.269 4.992 10.453 0 19.285-7.403 19.285-20.373 0-12.373-9.493-22.571-23.040-22.571-16.619 0-24.768 12.395-24.768 27.264 0 11.733 4.309 21.525 11.051 27.755 6.229 5.675 14.293 8.747 24.107 9.237 2.688 0.192 4.416 0.192 5.845 0.107v-11.243zM659.84 63.424c0 5.76-3.072 10.752-9.323 10.752-3.947 0-7.211-2.389-8.64-5.568-0.384-0.768-0.576-1.941-0.576-3.669 0.277-6.635 3.456-12.565 10.091-12.565 5.184 0 8.448 4.693 8.448 11.051zM725.995 105.088v-9.216l-25.749-53.205h-15.445l25.749 50.219v0.192h-28.608v12.011h44.053zM733.568 59.008c0 7.488 4.331 12.672 11.136 15.637v0.299c-6.037 3.072-9.024 8.171-9.024 13.632 0 10.56 9.493 17.579 21.995 17.579 14.592 0 20.651-8.448 20.651-16.043 0-5.376-2.88-10.667-9.024-13.739v-0.299c6.059-2.304 11.435-7.488 11.435-15.552 0-11.328-9.493-18.923-24-18.923-15.872 0-23.168 8.939-23.168 17.408zM765.824 59.477c0 5.461-4.032 8.725-9.792 10.261-4.8-1.344-7.573-4.821-7.573-9.323-0.085-4.523 3.371-8.747 8.832-8.747 5.184 0.021 8.533 3.392 8.533 7.808zM749.397 89.045c0-4.203 3.84-6.912 8.832-8.448 3.371 0.96 6.336 4.011 6.336 7.957 0 3.861-2.219 7.68-7.595 7.68-4.971 0.021-7.573-3.264-7.573-7.189zM831.189 72.725v-9.707h-25.152v9.707h25.152zM862.101 53.227c1.813-0.192 3.456-0.192 6.336 0 4.416 0.299 8.917 1.536 12.288 3.84 4.032 2.795 6.72 6.827 7.872 11.541l-0.277 0.085c-2.773-2.88-6.805-4.523-12.48-4.523-10.56 0-19.499 7.403-19.499 19.499 0 12.203 9.792 22.485 23.531 22.485 16.043 0 23.616-12.288 23.616-26.901 0-12.949-4.117-22.464-10.944-28.715-5.952-5.376-14.123-8.363-23.808-8.725-2.496-0.213-4.992-0.107-6.635 0v11.413zM870.933 84.544c0-5.376 2.88-10.005 8.832-10.005 3.947 0 6.72 1.92 8.064 4.139 0.469 0.853 0.768 1.813 0.768 3.648 0 6.635-2.496 13.141-9.131 13.141-4.971 0.021-8.619-4.395-8.533-10.923z" />
<glyph unicode="&#xe971;" glyph-name="fluorine_0113" d="M520 725.333c-188.501 0-359.125-76.416-482.667-200l60.331-60.331c108.096 108.075 257.429 174.997 422.336 174.997s314.24-66.923 422.336-174.997l60.331 60.331c-123.541 123.584-294.165 200-482.667 200zM520 554.667c-141.376 0-269.376-57.344-362.005-149.995l60.331-60.331c77.227 77.248 183.893 124.992 301.675 124.992s224.448-47.744 301.675-124.992l60.331 60.331c-92.629 92.651-220.629 149.995-362.005 149.995zM520 384c-94.251 0-179.584-38.251-241.344-100.011l60.331-60.331c46.357 46.336 110.357 75.008 181.013 75.008s134.677-28.672 180.992-75.008l60.331 60.331c-61.739 61.76-147.072 100.011-241.323 100.011zM640.661 163.328c-30.869 30.912-73.536 50.005-120.661 50.005s-89.792-19.093-120.661-50.005l120.661-120.661 120.661 120.661z" />
<glyph unicode="&#xe972;" glyph-name="fluorine_0114" d="M942.336 465.003l60.331 60.331c-123.541 123.584-294.165 200-482.667 200-69.632 0-136.789-10.475-200.043-29.845l69.867-69.888c41.92 9.323 85.44 14.4 130.176 14.4 164.907 0 314.24-66.923 422.336-174.997zM821.675 344.341l60.331 60.331c-92.629 92.651-220.629 149.995-362.005 149.995-18.987 0-37.696-1.109-56.128-3.115l83.584-83.605c106.816-6.827 203.093-52.437 274.219-123.605zM761.344 283.989c-28.181 28.16-61.44 51.136-98.048 68.117l83.093-83.093 14.955 14.976zM853.333 43.925l-724.096 724.075-60.331-60.352 87.829-87.829c-43.179-27.179-83.499-58.539-119.403-94.485l60.331-60.331c35.968 35.989 76.565 67.264 120.768 93.12l62.656-62.656c-45.525-24.064-87.019-54.72-123.093-90.816l60.331-60.331c36.288 36.288 79.061 66.069 126.443 87.445l66.027-66.005c-50.304-16.917-95.424-45.077-132.117-81.771l60.331-60.331c37.653 37.653 87.061 63.317 142.144 71.744l89.813-89.835c-16.085 5.056-33.216 7.765-50.965 7.765-47.125 0-89.792-19.093-120.661-50.005l120.661-120.661 106.944 106.944 166.037-166.016 60.352 60.331z" />
<glyph unicode="&#xe973;" glyph-name="fluorine_0115" d="M436.587 580.096l-60.331 60.331-30.165-30.165c-49.323-49.301-69.184-116.715-60.117-180.821l150.613 150.656zM587.456 368.917c-39.339-39.317-98.048-47.531-145.579-24.896l-62.592-62.592c82.837-54.869 195.499-45.824 268.501 27.136l150.123 150.144-60.075 60.565-150.379-150.357zM527.083 791.296l-150.827-150.848 60.331-60.331 150.848 150.827c49.92 49.92 131.115 49.92 181.013 0 49.92-49.899 49.92-131.093 0-180.992l-30.635-30.656 60.075-60.565 30.869 30.869c83.307 83.285 83.307 218.368 0 301.696-83.264 83.307-218.347 83.307-301.675 0zM587.435 187.904l60.352-60.331 30.165 30.165c49.301 49.301 69.163 116.715 60.117 180.821l-150.635-150.656zM436.587 399.083c39.339 39.317 98.027 47.531 145.579 24.896l62.592 62.592c-82.837 54.869-195.52 45.824-268.501-27.115l-150.144-150.165 60.096-60.565 150.379 150.357zM496.917-23.296l150.869 150.848-60.352 60.331-15.104-15.083-135.744-135.744c-49.92-49.92-131.115-49.92-180.992-0.021-49.92 49.92-49.92 131.115 0 181.013l30.635 30.656-60.096 60.565-30.912-30.869c-83.307-83.285-83.307-218.368 0.021-301.696 83.307-83.307 218.389-83.307 301.675 0z" />
<glyph unicode="&#xe974;" glyph-name="fluorine_0116" d="M737.557 476.459c-17.792 0-33.557-1.557-33.557-3.115v-118.357c0-2.603 14.699-3.115 27.819-3.115 48.149 0 77.483 24.064 77.483 64.917 0 39.253-27.221 59.669-71.744 59.669zM490.667 810.667c-235.648 0-426.667-191.040-426.667-426.667s191.019-426.667 426.667-426.667 426.667 191.040 426.667 426.667-191.019 426.667-426.667 426.667zM327.253 170.667h-71.979l-111.275 362.667h68.416l46.976-165.696c13.248-44.843 25.003-90.304 33.664-132.971h1.024c9.195 42.667 21.973 89.195 35.243 132.459l50.027 166.208h66.88l-118.976-362.667zM554.667 170.667h-64v362.667h64v-362.667zM731.819 301.611c-12.053 0-27.819 0.469-27.819 2.603v-133.547h-64v348.224c21.333 4.16 51.968 7.339 94.869 7.339 47.147 0 79.403-9.984 101.909-28.8 20.949-17.301 33.664-45.035 33.664-78.059 0-33.493-9.109-60.736-28.48-79.573-26.155-25.643-64.619-38.187-110.144-38.187z" />
<glyph unicode="&#xe975;" glyph-name="fluorine_0117" d="M648.811 265.323l51.925-103.851c-19.691-60.757-55.317-109.973-106.923-147.648-51.584-37.653-109.099-56.491-172.587-56.491-52.949 0-101.888 13.141-146.859 39.467-44.971 26.283-80.597 61.931-106.923 106.923-26.304 44.949-39.445 93.909-39.445 146.837 0 61.44 17.728 117.44 53.205 168 35.477 50.581 82.048 86.4 139.755 107.435l8.661-66.709c-41.408-18.325-74.496-46.421-99.264-84.245-24.789-37.845-37.163-79.339-37.163-124.48 0-62.763 22.315-116.48 66.944-161.131 44.629-44.629 98.347-66.944 161.131-66.944 42.773 0 82.219 11.029 118.379 33.109 36.139 22.037 64.149 51.84 84.011 89.344 19.797 37.483 28.203 77.632 25.152 120.384v0zM927.787 214.443l29.525-58.048-130.325-65.173c-4.416-2.368-9.323-3.563-14.763-3.563-13.568 0-23.253 5.909-29.013 17.813l-121.664 242.837h-240.32c-8.149 0-15.36 2.795-21.632 8.405s-9.941 12.48-10.944 20.629l-48.875 396.544c-0.683 5.461 0.341 12.587 3.051 21.397 4.757 17.323 14.421 31.317 29.013 42.005 14.613 10.709 31.061 16.043 49.387 16.043 22.4 0 41.579-7.979 57.536-23.936 15.936-15.936 23.915-35.115 23.915-57.515 0-23.424-8.811-43.349-26.475-59.819s-38.016-23.531-61.077-21.12l18.837-147.136h215.339v-65.152h-207.189l8.149-65.173h231.637c13.589 0 23.253-5.931 29.013-17.813l116.075-231.637 100.8 50.411z" />
<glyph unicode="&#xe976;" glyph-name="fluorine_0118" d="M582.656 563.989c0-17.813-2.603-35.072-7.829-51.691-5.205-16.661-13.227-31.936-24.021-45.781-10.816-13.867-24.491-25.877-41.003-36.053-16.533-10.176-36.117-17.664-58.752-22.507l154.88-237.291h-99.947l-140.011 228.117h-109.973v-228.117h-85.333v554.667h211.712c32.555 0 61.291-3.755 86.229-11.243 24.917-7.531 45.824-18.197 62.741-32.064 16.917-13.845 29.696-30.741 38.336-50.709 8.64-19.989 12.971-42.432 12.971-67.328zM493.397 563.179c0 31.808-10.432 56.043-31.275 72.683-20.864 16.64-49.963 24.981-87.36 24.981h-118.763v-198.379h121.813c20.075 0 37.44 2.624 52.053 7.829s26.645 12.331 36.053 21.376c9.408 9.003 16.341 19.627 20.8 31.829 4.437 12.224 6.677 25.451 6.677 39.68zM744.704 231.083l74.816 110.251h67.221l-107.157-143.701 113.899-153.301h-67.776l-81.003 116.16-81.28-116.16h-66.091l112.491 152.704-106.859 144.299h66.944l74.795-110.251z" />
<glyph unicode="&#xe977;" glyph-name="fluorine_0119" d="M618.667 452.949c0-46.293-6.869-86.976-20.587-122.069-13.739-35.115-32.747-64.533-57.045-88.341-24.277-23.765-52.821-41.707-85.632-53.781-32.811-12.053-68.288-18.091-106.432-18.091h-178.304v554.667h153.877c42.965 0 82.517-5.269 118.635-15.829 36.096-10.56 67.136-26.901 93.077-49.024s46.165-50.347 60.651-84.693c14.507-34.325 21.76-75.285 21.76-122.837zM531.691 452.949c0 35.861-5.099 66.56-15.253 92.117-10.176 25.557-24.469 46.549-42.923 62.933-18.453 16.427-40.448 28.416-66.005 36.032-25.557 7.637-53.739 11.477-84.501 11.477h-67.008v-415.061h84.181c27.477 0 52.843 4.501 76.117 13.547 23.253 9.024 43.499 22.379 60.651 40.064 17.173 17.664 30.571 39.787 40.256 66.368 9.643 26.603 14.485 57.429 14.485 92.523zM789.888 229.419l74.816 110.251h67.221l-107.157-143.701 113.899-153.301h-67.776l-81.003 116.16-81.28-116.16h-66.091l112.491 152.704-106.88 144.299h66.944l74.816-110.251z" />
<glyph unicode="&#xe978;" glyph-name="fluorine_0120" d="M895.936-18.752c-3.563 88.085-15.659 208.981-53.013 284.885-33.749 68.736-117.013 96.213-183.915 118.293-22.549 7.403-58.005 19.051-68.907 28.181 2.069 11.904 16.96 30.251 31.424 48.021 31.68 38.869 70.677 86.72 70.677 157.44 0 113.621-82.688 235.264-205.781 235.264-123.115 0-205.803-121.643-205.803-235.264 0-70.677 38.997-118.528 70.315-156.949 15.787-19.413 31.765-39.061 32.043-50.795-6.635-8.128-35.776-20.501-51.669-27.264-49.536-21.035-117.333-49.877-150.251-116.928-37.355-75.925-49.451-196.821-53.013-284.864l-2.688-66.603h773.291l-2.709 66.581zM192-21.333c2.517 62.336 11.904 188.907 46.507 259.221 22.421 45.675 73.109 67.221 117.824 86.251 2.112 0.896 4.203 1.813 6.315 2.731v-55.467c-20.459-6.485-35.819-18.304-45.867-35.392-25.579-43.477-6.059-108.096 10.688-147.925-4.693-6.827-7.467-15.125-7.467-24.085 0-23.552 19.115-42.667 42.667-42.667s42.667 19.115 42.667 42.667c0 22.293-17.173 40.405-38.976 42.283-14.080 34.389-27.84 82.539-12.779 108.096 2.965 5.035 11.947 20.288 51.755 20.288 38.101 0 65.152-10.667 80.363-31.701 20.181-27.925 18.475-69.333 13.781-98.368-17.408-5.397-30.144-21.44-30.144-40.597 0-23.552 19.115-42.667 42.667-42.667s42.667 19.115 42.667 42.667c0 12.245-5.248 23.232-13.504 30.997 6.123 36.544 8.555 92.096-20.8 132.843-23.68 32.832-62.379 49.493-115.029 49.493v70.315c24 14.464 41.664 33.109 41.664 62.357 0 34.56-22.549 62.144-46.4 91.477-27.52 33.749-55.979 68.651-55.979 116.587 0 81.067 58.24 171.264 141.803 171.264s141.781-90.219 141.781-171.264c0-47.936-28.437-82.837-55.957-116.587-23.829-29.333-46.379-56.917-46.379-91.477 0-49.259 54.656-67.157 112.469-86.165 1.237-0.427 2.56-0.853 3.797-1.28 3.435-30.507 7.467-78.741 10.176-113.088-19.691-7.829-33.643-26.965-33.643-49.472 0-29.461 23.872-53.333 53.333-53.333s53.333 23.872 53.333 53.333c0 21.077-12.331 39.125-30.080 47.787-2.219 28.139-5.461 67.605-8.597 99.2 42.325-16.021 82.944-36.8 98.837-69.12 34.539-70.187 43.968-196.715 46.507-259.2h-640z" />
<glyph unicode="&#xe979;" glyph-name="fluorine_0121" d="M746.667 384l-277.333-213.333v-42.667h85.333v-214.677h384v214.677h85.333v42.667l-277.333 213.333zM725.333-22.677v86.677h42.667v-86.677h-42.667zM874.667 192v-214.677h-42.667v150.677h-170.667v-150.677h-42.667v214.677h-16.64l144.64 111.253 144.64-111.253h-16.64zM533.653 384.427c-22.528 7.403-57.984 19.051-68.907 28.181 2.069 11.904 16.96 30.229 31.424 48.021 31.68 38.869 70.677 86.72 70.677 157.44 0 113.621-82.688 235.264-205.781 235.264-123.115 0-205.803-121.643-205.803-235.264 0-70.677 38.997-118.528 70.315-156.949 15.787-19.413 31.765-39.061 32.043-50.795-6.635-8.128-35.776-20.523-51.669-27.264-49.536-21.035-117.333-49.877-150.251-116.928-37.355-75.925-49.451-196.821-53.013-284.864l-2.688-66.603h512v64h-445.355c2.517 62.336 11.904 188.907 46.507 259.221 22.421 45.675 73.109 67.221 117.824 86.251 1.237 0.512 2.453 1.067 3.691 1.579v-54.315c-20.459-6.485-35.819-18.304-45.867-35.392-25.579-43.477-6.059-108.096 10.688-147.925-4.715-6.827-7.488-15.125-7.488-24.085 0-23.552 19.115-42.667 42.667-42.667s42.667 19.115 42.667 42.667c0 22.293-17.173 40.405-38.976 42.283-14.080 34.389-27.84 82.539-12.779 108.096 2.965 5.035 11.947 20.288 51.755 20.288 38.101 0 65.152-10.667 80.363-31.701 20.181-27.925 18.475-69.333 13.781-98.368-17.408-5.397-30.144-21.44-30.144-40.597 0-23.552 19.115-42.667 42.667-42.667s42.667 19.115 42.667 42.667c0 12.245-5.248 23.232-13.504 30.997 6.123 36.544 8.555 92.096-20.8 132.843-23.68 32.832-62.379 49.493-115.029 49.493v68.8c25.323 14.677 44.288 33.579 44.288 63.872 0 34.56-22.549 62.144-46.4 91.477-27.52 33.749-55.979 68.651-55.979 116.587 0 81.067 58.24 171.264 141.803 171.264s141.781-90.219 141.781-171.264c0-47.936-28.437-82.837-55.957-116.587-23.829-29.333-46.379-56.917-46.379-91.477 0-49.259 54.656-67.157 112.469-86.165 19.285-6.379 40.171-13.333 60.181-21.483l57.344 44.096c-31.445 16.128-65.835 27.733-96.832 37.973z" />
<glyph unicode="&#xe97a;" glyph-name="fluorine_0122" d="M895.936-18.752c-3.563 88.085-15.659 208.981-53.013 284.885-33.749 68.736-117.013 96.213-183.915 118.293-22.549 7.403-58.005 19.051-68.907 28.181 2.069 11.904 16.96 30.251 31.424 48.021 31.68 38.869 70.677 86.72 70.677 157.44 0 113.621-82.688 235.264-205.781 235.264-123.115 0-205.803-121.643-205.803-235.264 0-70.677 38.997-118.528 70.315-156.949 15.787-19.413 31.765-39.061 32.043-50.795-6.635-8.128-35.776-20.501-51.669-27.264-49.536-21.035-117.333-49.877-150.251-116.928-37.355-75.925-49.451-196.821-53.013-284.864l-2.688-66.603h773.291l-2.709 66.581zM344.619 618.069c0 81.067 58.24 171.264 141.803 171.264s141.781-90.219 141.781-171.264c0-47.936-28.437-82.837-55.957-116.587-23.829-29.333-46.379-56.917-46.379-91.477 0-40.171 36.373-59.499 81.173-75.563l-105.707-98.667-111.061 103.637c31.296 15.637 56.704 35.477 56.704 70.592 0 34.56-22.549 62.144-46.4 91.477-27.499 33.749-55.957 68.651-55.957 116.587zM192-21.333c2.517 62.336 11.904 188.907 46.507 259.221 17.579 35.776 52.48 56.683 88.277 73.259l174.549-162.923 174.443 162.816c46.101-16.533 92.459-38.037 109.717-73.173 34.539-70.187 43.968-196.715 46.507-259.2h-640zM256 128v-42.667h64v-64h42.667v64h64v42.667h-64v64h-42.667v-64z" />
<glyph unicode="&#xe97b;" glyph-name="fluorine_0123" d="M789.355 827.392c-33.6 19.392-70.272 28.629-106.475 28.629-73.728 0-145.429-38.272-184.939-106.688l-298.709-517.291c-58.901-102.016-23.979-232.491 78.080-291.413 33.6-19.413 70.272-28.629 106.475-28.629 73.707 0 145.429 38.272 184.939 106.688l298.688 517.291c58.923 102.016 23.979 232.491-78.059 291.413zM798.144 575.979l-149.355-258.667-230.933 133.355 149.355 258.667c23.744 41.131 68.075 66.688 115.691 66.688 23.189 0 46.187-6.187 66.453-17.899 30.827-17.813 52.885-46.571 62.123-80.981 9.216-34.389 4.48-70.315-13.333-101.163z" />
<glyph unicode="&#xe97c;" glyph-name="fluorine_0124" d="M512 810.667v-64h42.667v-661.333c0-70.677 57.301-128 128-128s128 57.323 128 128v661.333h42.667v64h-341.333zM746.667 426.667h-128v320h128v-320zM128 810.667v-64h42.667v-661.333c0-70.677 57.301-128 128-128s128 57.323 128 128v661.333h42.667v64h-341.333zM362.667 298.667h-128v448h128v-448z" />
<glyph unicode="&#xe97d;" glyph-name="fluorine_0125" d="M512 557.952v96.171c192-79.744 210.837 109.717 210.837 109.717-108.523 58.667-168.171 30.293-210.837-9.237v141.397h-42.667v-179.456c-85.333-21.909-164.885-45.056-164.885-105.451 0-61.824 79.552-85.355 164.885-108.075v-104.043c-64-19.968-135.467-42.709-135.467-97.344 0-60.672 71.467-84.459 135.467-106.688v-94.080c-42.667-17.472-99.797-33.195-116.224-66.901-6.912-14.208-6.955-29.781-1.259-45.205 13.781-37.013 47.829-44.992 81.664-52.757 11.755-2.688 35.819-5.589 35.819-9.579v-54.421h42.667v175.381c64 20.587 122.219 44.373 122.219 98.453 0 56.725-58.219 81.259-122.219 102.379v95.915c0 0.192 2.688 0.384 3.371 0.555 84.267 22.272 163.221 43.264 163.221 104.896 0 62.080-81.259 85.547-166.592 108.373zM368.235 609.877c6.443 13.781 58.432 29.205 101.099 40.533v-81.173c-42.667 11.52-95.787 27.883-101.099 40.64zM448.085-1.621c-13.056 3.008-29.397 6.592-35.264 10.368 9.408 7.829 35.179 17.067 56.512 24.747v-40.512c0 2.069-14.229 3.819-21.248 5.397zM570.24 146.048c-3.072-9.472-36.907-21.291-58.24-30.997v65.28c21.333-10.624 58.219-23.765 58.24-34.283zM469.333 262.485c-21.333 11.136-71.531 26.603-71.723 37.803 5.141 10.496 50.389 22.357 71.723 32.085v-69.888zM512 410.325v81.365c42.667-11.499 96.832-28.011 102.229-40.789-6.784-13.824-59.563-30.037-102.229-40.576z" />
<glyph unicode="&#xe97e;" glyph-name="fluorine_0126" d="M896 725.333v-682.667c0-47.125-38.208-85.333-85.333-85.333h-597.333c-47.125 0-85.333 38.208-85.333 85.333v682.667c0 47.125 38.208 85.333 85.333 85.333h597.333c47.125 0 85.333-38.208 85.333-85.333zM820.779 499.691l-192 64c-16.768 5.632-34.88-3.499-40.469-20.224-5.589-16.768 3.477-34.901 20.245-40.469l192-64c3.349-1.152 6.763-1.664 10.112-1.664 13.397 0 25.877 8.469 30.357 21.867 5.589 16.789-3.477 34.901-20.245 40.491zM746.667 314.667c14.72 0 26.667 11.947 26.667 26.667s-11.947 26.667-26.667 26.667c-51.605 0-121.216 52.416-167.275 87.104-9.024 6.784-17.109 12.821-24.725 18.325v173.013c37.589 12.373 67.349 41.685 80.533 78.869h-240.981c12.565-35.349 40.064-63.616 75.115-76.907v-174.976c-7.595-5.525-15.68-11.541-24.725-18.325-46.059-34.688-115.669-87.104-167.275-87.104-14.72 0-26.667-11.947-26.667-26.667s11.947-26.667 26.667-26.667c66.389 0 137.92 51.669 192 92.288v-49.067c-50.219-49.024-90.197-79.936-175.893-97.088-14.443-2.88-23.808-16.939-20.907-31.381 2.539-12.693 13.675-21.44 26.112-21.44 1.749 0 3.499 0.171 5.269 0.512 76.928 15.381 123.435 41.728 165.44 77.077v-55.723c-48.171-47.339-82.24-75.2-128-75.2-14.72 0-26.667-11.947-26.667-26.667s11.947-26.667 26.667-26.667c50.219 0 88.363 21.781 128 55.936v-114.581h85.333v114.603c39.637-34.155 77.781-55.936 128-55.936 14.72 0 26.667 11.947 26.667 26.667s-11.947 26.667-26.667 26.667c-45.76 0-79.829 27.883-128 75.2v55.723c42.005-35.349 88.512-61.717 165.44-77.077 1.771-0.363 3.52-0.512 5.269-0.512 12.437 0 23.573 8.768 26.112 21.44 2.901 14.443-6.485 28.501-20.907 31.381-85.717 17.152-125.675 48.064-175.893 97.088v49.067c54.037-40.64 125.568-92.309 191.957-92.309zM435.691 543.467c-5.568 16.725-23.701 25.856-40.469 20.224l-192-64c-16.768-5.589-25.835-23.701-20.245-40.469 4.48-13.419 16.96-21.888 30.357-21.888 3.349 0 6.763 0.512 10.112 1.643l192 64c16.768 5.589 25.835 23.701 20.245 40.491z" />
<glyph unicode="&#xe97f;" glyph-name="fluorine_0127" d="M554.667 512h234.667l-234.667 234.667v-234.667zM256 810.667h341.333l256-256v-512c0-47.125-38.208-85.333-85.333-85.333h-512c-47.36 0-85.333 38.421-85.333 85.333v682.667c0 47.125 38.208 85.333 85.333 85.333zM466.347 365.248c17.472-38.421 39.637-69.995 65.28-91.755l17.493-13.675c-37.12-6.827-88.32-18.731-142.507-39.659v0l-4.693-1.707 21.333 44.373c19.2 37.099 33.28 70.848 43.093 102.421zM742.827 202.667c7.659 7.659 11.499 17.493 11.925 28.16 1.344 8.491-0.832 16.619-5.077 23.467-12.416 20.032-44.416 29.461-97.301 29.461l-55.040-3.008-37.12 24.747c-26.88 22.165-51.2 60.992-68.288 109.248l1.749 5.909c14.080 56.747 27.285 125.461-0.875 153.621-6.805 6.827-16.213 10.24-26.027 10.24h-10.24c-15.787 0-29.867-16.619-33.707-32.875-15.787-56.747-6.4-87.872 9.365-139.499v-0.427c-10.667-37.589-24.32-81.088-46.080-124.992l-40.96-76.843-37.952-20.907c-51.2-32-75.52-67.84-80.235-90.411-1.707-8.128-0.853-15.381 2.155-23.083l1.28-2.091 20.48-13.248 18.773-4.715c34.56 0 73.813 40.533 126.72 131.008l7.68 2.965c43.947 14.101 98.539 23.936 171.947 32.021 43.925-21.76 95.573-31.552 128-31.552 18.752 0 31.573 4.715 38.827 12.8zM725.333 232.96l3.84-4.715c-0.427-4.245-1.707-4.672-3.84-5.504h-1.707l-8.128-0.875c-19.584 0-49.92 8.128-81.045 21.76 3.84 4.288 5.547 4.288 9.792 4.288 59.755 0 76.843-10.667 81.088-14.955zM334.080 170.667c-27.733-50.752-52.907-78.912-72.107-85.333 2.133 16.213 21.333 44.373 51.627 72.085l20.48 13.248zM462.933 465.493c-9.813 38.421-10.24 69.547-3.008 87.467l3.008 5.12 6.4-2.176c7.253-10.219 8.107-23.829 3.84-46.912l-1.28-6.827-6.827-34.965-2.133-1.707z" />
<glyph unicode="&#xe980;" glyph-name="fluorine_0128" d="M682.667 393.408l180.907 312.725 73.835-42.667-223.168-386.133-277.76 160-203.52-352h705.707v-85.333h-853.333v768h85.333v-620.373l234.667 407.040 277.333-161.259z" />
<glyph unicode="&#xe981;" glyph-name="fluorine_0129" d="M938.667 0h-853.333v768h85.333v-682.667h85.333v384h170.667v-384h85.333v554.667h170.667v-554.667h85.333v213.333h170.667v-298.667zM85.333 768h85.333v-682.667h768v-85.333h-853.333z" />
<glyph unicode="&#xe982;" glyph-name="fluorine_0130" d="M684.437 896h-341.333c-47.125 0-85.333-38.208-85.333-85.333v-682.667c0-47.125 38.208-85.333 85.333-85.333h512c47.125 0 85.333 38.208 85.333 85.333v512l-256 256zM168.896 725.333h-85.333v-768c0-47.125 38.208-85.333 85.333-85.333h599.104v85.333h-599.104v768z" />
<glyph unicode="&#xe983;" glyph-name="fluorine_0131" d="M682.667 896h-341.333c-47.125 0-85.333-38.208-85.333-85.333v-682.667c0-47.125 38.208-85.333 85.333-85.333h512c47.125 0 85.333 38.208 85.333 85.333v512l-256 256zM682.667 775.317l135.317-135.317h-135.317v135.317zM853.333 128h-512v682.667h256v-256h256v-426.667zM170.667 725.333h-85.333v-768c0-47.125 38.208-85.333 85.333-85.333h599.104v85.333h-599.104v768zM426.667 469.333h298.667v-85.333h-298.667v85.333zM426.667 298.667h213.333v-85.333h-213.333v85.333z" />
<glyph unicode="&#xe984;" glyph-name="fluorine_0132" d="M938.667 725.333h-341.333l-85.333 85.333h-256c-47.125 0-85.333-38.208-85.333-85.333v-512c0-47.125 38.208-85.333 85.333-85.333h682.667c47.125 0 85.333 38.208 85.333 85.333v426.667c0 47.125-38.208 85.333-85.333 85.333zM85.333 640h-85.333v-597.333c0-47.125 38.208-85.333 85.333-85.333h768v85.333h-768v597.333z" />
<glyph unicode="&#xe985;" glyph-name="fluorine_0133" d="M938.667 725.333c47.125 0 85.333-38.208 85.333-85.333v-426.667c0-47.125-38.208-85.333-85.333-85.333h-682.667c-47.125 0-85.333 38.208-85.333 85.333v512c0 47.125 38.208 85.333 85.333 85.333h256l85.333-85.333h341.333zM85.333 640v-597.333h768v-85.333h-768c-47.125 0-85.333 38.208-85.333 85.333v597.333h85.333zM256 640v-426.667h682.667v426.667h-682.667z" />
<glyph unicode="&#xe986;" glyph-name="fluorine_0134" d="M469.397 256.128v-115.563h115.563l340.971 340.949-115.563 115.563-340.971-340.949zM1014.997 570.581c12.011 12.011 12.011 31.595 0 43.605l-71.957 71.957c-12.032 12.011-31.595 12.011-43.605 0l-56.405-56.384 115.563-115.563 56.405 56.384zM226.581-2.24c-4.544 0-9.344 0.704-14.507 2.219-42.283 12.437-41.963 61.163-41.408 149.632 0.448 71.040 21.525 118.848 43.84 169.451 15.104 34.261 30.72 69.717 42.773 117.952 6.699 26.816 6.443 50.219-0.747 65.92-4.715 10.24-12.053 16.704-21.867 19.136-25.579 6.464-69.376-15.573-86.592-84.437-8.555-34.197-10.027-67.563-11.435-99.861-3.115-70.507-7.339-167.104-136.64-167.104v85.333c42.901 0 47.744 2.773 51.371 85.547 1.536 34.816 3.264 74.261 13.888 116.821 29.675 118.635 120.085 164.117 190.080 146.517 35.179-8.789 63.147-32.384 78.741-66.368 15.467-33.707 17.515-75.968 5.973-122.197-13.824-55.296-31.701-95.872-47.488-131.648-19.584-44.437-35.179-79.851-36.501-130.368 37.589 49.451 92.629 101.696 170.603 101.696v-85.333c-61.419 0-105.557-69.419-134.784-115.349-18.731-29.504-36.587-57.557-65.301-57.557z" />
<glyph unicode="&#xe987;" glyph-name="fluorine_0135" d="M682.667 128c0 0 0 100.373-24.939 150.592-24.917 50.219-124.651 50.219-124.651 75.285 0 25.109 49.856 50.197 49.856 100.395s-37.419 100.395-87.275 100.395-87.275-50.197-87.275-100.395 49.856-75.285 49.856-100.395c0-25.088-74.816-25.088-99.733-75.285-24.939-50.219-24.939-150.592-24.939-150.592h349.099zM604.651 725.333l163.349-163.349v-519.317h-512v682.667h348.651zM640 810.667h-384c-47.125 0-85.333-38.208-85.333-85.333v-682.667c0-47.125 38.208-85.333 85.333-85.333h512c47.125 0 85.333 38.208 85.333 85.333v554.667l-213.333 213.333z" />
<glyph unicode="&#xe988;" glyph-name="fluorine_0136" d="M469.333 85.333l-170.667 170.667 64 64 106.667-106.667 192 192 64-64zM604.651 725.333l163.349-163.349v-519.317h-512v682.667h348.651zM640 810.667h-384c-47.125 0-85.333-38.208-85.333-85.333v-682.667c0-47.125 38.208-85.333 85.333-85.333h512c47.125 0 85.333 38.208 85.333 85.333v554.667l-213.333 213.333z" />
<glyph unicode="&#xe989;" glyph-name="fluorine_0137" d="M661.333 298.667h-33.92l-11.755 11.733c41.835 48.427 67.008 111.36 67.008 180.267 0 153.173-124.16 277.333-277.333 277.333s-277.333-124.16-277.333-277.333 124.16-277.333 277.333-277.333c68.907 0 131.84 25.173 180.267 66.773l11.733-11.733v-33.707l213.333-212.907 63.573 63.573-212.907 213.333zM405.333 298.667c-106.027 0-192 85.952-192 192s85.973 192 192 192 192-85.952 192-192-85.973-192-192-192z" />
<glyph unicode="&#xe98a;" glyph-name="fluorine_0138" d="M661.333 298.667h-33.707l-11.968 11.499c41.835 48.661 67.008 111.829 67.008 180.501 0 153.173-124.16 277.333-277.333 277.333s-277.333-124.16-277.333-277.333 124.16-277.333 277.333-277.333c68.693 0 131.84 25.173 180.501 67.008l11.499-11.968v-33.707l213.333-212.907 63.573 63.573-212.907 213.333zM405.333 298.667c-106.219 0-192 85.76-192 192s85.781 192 192 192 192-85.76 192-192-85.781-192-192-192zM512 469.333h-85.333v-85.333h-42.667v85.333h-85.333v42.667h85.333v85.333h42.667v-85.333h85.333v-42.667z" />
<glyph unicode="&#xe98b;" glyph-name="fluorine_0139" d="M661.333 298.667h-33.707l-11.968 11.499c41.835 48.661 67.008 111.829 67.008 180.501 0 153.173-124.16 277.333-277.333 277.333s-277.333-124.16-277.333-277.333 124.16-277.333 277.333-277.333c68.693 0 131.84 25.173 180.501 67.008l11.499-11.968v-33.707l213.333-212.907 63.573 63.573-212.907 213.333zM405.333 298.667c-106.219 0-192 85.76-192 192s85.781 192 192 192 192-85.76 192-192-85.781-192-192-192zM512 469.333h-213.333v42.667h213.333v-42.667z" />
<glyph unicode="&#xe98c;" glyph-name="fluorine_0140" d="M341.333 682.667v-597.333l469.333 298.667-469.333 298.667z" />
<glyph unicode="&#xe98d;" glyph-name="fluorine_0141" d="M256 85.333h170.667v597.333h-170.667v-597.333zM597.333 682.667v-597.333h170.667v597.333h-170.667z" />
<glyph unicode="&#xe98e;" glyph-name="fluorine_0142" d="M256 640h512v-512h-512v512z" />
<glyph unicode="&#xe98f;" glyph-name="fluorine_0143" d="M170.667 128l362.667 256-362.667 256v-512zM554.667 640v-512l362.667 256-362.667 256z" />
<glyph unicode="&#xe990;" glyph-name="fluorine_0144" d="M469.333 128v512l-362.667-256 362.667-256zM490.667 384l362.667-256v512l-362.667-256z" />
<glyph unicode="&#xe991;" glyph-name="fluorine_0145" d="M682.667 725.333v-326.272l-341.333 240.939v-512l341.333 240.939v-326.272h85.333v682.667z" />
<glyph unicode="&#xe992;" glyph-name="fluorine_0146" d="M682.667 640l-341.333-240.939v326.272h-85.333v-682.667h85.333v326.272l341.333-240.939z" />
<glyph unicode="&#xe993;" glyph-name="fluorine_0147" d="M256 597.333l256-298.667 256 298.667zM170.667 298.667h682.667v-85.333h-682.667v85.333z" />
<glyph unicode="&#xe994;" glyph-name="fluorine_0148" d="M746.667 384c0-129.603-105.064-234.667-234.667-234.667s-234.667 105.064-234.667 234.667c0 129.603 105.064 234.667 234.667 234.667s234.667-105.064 234.667-234.667z" />
<glyph unicode="&#xe995;" glyph-name="fluorine_0149" d="M512 810.667c-235.733 0-426.667-190.933-426.667-426.667s190.933-426.667 426.667-426.667 426.667 190.933 426.667 426.667-190.933 426.667-426.667 426.667zM426.667 192v384l256-192-256-192z" />
<glyph unicode="&#xe996;" glyph-name="fluorine_0150" d="M512 810.667c-235.733 0-426.667-190.933-426.667-426.667s190.933-426.667 426.667-426.667 426.667 190.933 426.667 426.667-190.933 426.667-426.667 426.667zM469.333 213.333h-85.333v341.333h85.333v-341.333zM640 213.333h-85.333v341.333h85.333v-341.333z" />
<glyph unicode="&#xe997;" glyph-name="fluorine_0151" d="M512 810.667c-235.733 0-426.667-190.933-426.667-426.667s190.933-426.667 426.667-426.667 426.667 190.933 426.667 426.667-190.933 426.667-426.667 426.667zM640 256h-256v256h256v-256z" />
<glyph unicode="&#xe998;" glyph-name="fluorine_0152" d="M512 298.667c70.635 0 127.573 57.365 127.573 128l0.427 256c0 70.827-57.173 128-128 128-70.613 0-128-57.173-128-128v-256c0-70.635 57.387-128 128-128zM738.133 426.667c0-128-108.16-217.6-226.133-217.6-117.76 0-226.133 89.6-226.133 217.6h-72.533c0-145.707 116.053-266.048 256-286.699v-139.968h85.333v139.968c139.968 20.651 256 140.992 256 286.699h-72.533z" />
<glyph unicode="&#xe999;" glyph-name="fluorine_0153" d="M810.667 426.667h-72.533c0-31.787-6.613-61.227-18.539-87.467l52.459-52.501c24.32 41.643 38.613 89.195 38.613 139.968zM639.381 419.627c0 2.325 0.619 4.715 0.619 7.040v256c0 70.827-57.365 128-128 128-70.613 0-128-57.173-128-128v-7.893l255.381-255.147zM182.4 768l-54.4-54.4 256.427-256.427v-30.699c0-70.635 56.96-128 127.573-128 9.6 0 18.773 1.28 27.733 3.2l70.827-70.827c-30.528-14.080-64-21.973-98.56-21.973-117.76 0-226.133 89.6-226.133 217.6h-72.533c0-145.707 116.053-266.048 256-286.72v-139.755h85.333v139.968c38.635 5.76 75.285 19.179 108.373 38.613l178.56-178.581 54.4 54.187-713.6 713.813z" />
<glyph unicode="&#xe99a;" glyph-name="fluorine_0154" d="M725.333 448v149.333c0 23.467-19.2 42.667-42.667 42.667h-512c-23.467 0-42.667-19.2-42.667-42.667v-426.667c0-23.467 19.2-42.667 42.667-42.667h512c23.467 0 42.667 19.2 42.667 42.667v149.333l170.667-170.667v469.333l-170.667-170.667z" />
<glyph unicode="&#xe99b;" glyph-name="fluorine_0155" d="M896 618.667l-170.667-170.667v149.333c0 23.467-19.2 42.667-42.667 42.667h-263.68l477.013-476.992v455.659zM139.733 810.667l-54.4-54.4 116.267-116.267h-30.933c-23.467 0-42.667-19.2-42.667-42.667v-426.667c0-23.467 19.2-42.667 42.667-42.667h512c8.747 0 16.427 3.2 23.253 7.893l135.893-135.893 54.187 54.4-756.267 756.267z" />
<glyph unicode="&#xe99c;" glyph-name="fluorine_0156" d="M682.667 384v341.333h42.667v85.333h-426.667v-85.333h42.667v-341.333l-85.333-85.333v-85.333h221.867v-256h68.267v256h221.867v85.333l-85.333 85.333z" />
<glyph unicode="&#xe99d;" glyph-name="fluorine_0157" d="M85.333 671.168l54.613 54.165 713.387-713.408-54.165-54.592-253.035 252.992v-252.992h-68.267v256h-221.867v85.333l85.333 85.333v31.168l-256 256zM682.667 384l85.333-85.333v-85.333h-7.659l-419.008 419.008v92.992h-42.667v85.333h426.667v-85.333h-42.667v-341.333z" />
<glyph unicode="&#xe99e;" glyph-name="fluorine_0158" d="M384-42.667c-23.552 0-42.667 19.093-42.667 42.667v128h-170.667c-47.125 0-85.333 38.208-85.333 85.333v512c0 47.339 38.4 85.333 85.333 85.333h682.667c47.125 0 85.333-38.208 85.333-85.333v-512c0-47.125-38.208-85.333-85.333-85.333h-260.245l-157.867-158.293c-8.555-8.128-19.221-12.373-29.888-12.373v0h-21.333zM256 597.333v-85.333h512v85.333h-512zM256 426.667v-85.333h384v85.333h-384z" />
<glyph unicode="&#xe99f;" glyph-name="fluorine_0159" d="M384-42.667c-23.552 0-42.667 19.093-42.667 42.667v128h-170.667c-47.125 0-85.333 38.208-85.333 85.333v512c0 47.339 38.4 85.333 85.333 85.333h682.667c47.125 0 85.333-38.208 85.333-85.333v-512c0-47.125-38.208-85.333-85.333-85.333h-260.245l-157.867-158.293c-8.555-8.128-19.221-12.373-29.888-12.373v0h-21.333zM426.667 213.333v-131.413l131.413 131.413h295.253v512h-682.667v-512h256zM256 597.333h512v-85.333h-512v85.333zM256 426.667h384v-85.333h-384v85.333z" />
<glyph unicode="&#xe9a0;" glyph-name="fluorine_0160" d="M170.667 725.333h682.667v-128h-682.667v128zM170.667 554.667h682.667v-128h-682.667v128zM170.667 384h682.667v-128h-682.667v128zM170.667 213.333h682.667v-128h-682.667v128z" />
<glyph unicode="&#xe9a1;" glyph-name="fluorine_0161" d="M128 725.333h341.333v-128h-341.333v128zM128 554.667h341.333v-128h-341.333v128zM128 384h341.333v-128h-341.333v128zM128 213.333h341.333v-128h-341.333v128zM554.667 725.333h341.333v-128h-341.333v128zM554.667 554.667h341.333v-128h-341.333v128zM554.667 384h341.333v-128h-341.333v128zM554.667 213.333h341.333v-128h-341.333v128z" />
<glyph unicode="&#xe9a2;" glyph-name="fluorine_0162" d="M85.333 725.333h213.333v-128h-213.333v128zM85.333 554.667h213.333v-128h-213.333v128zM85.333 384h213.333v-128h-213.333v128zM85.333 213.333h213.333v-128h-213.333v128zM384 725.333h256v-128h-256v128zM384 554.667h256v-128h-256v128zM384 384h256v-128h-256v128zM384 213.333h256v-128h-256v128zM725.333 725.333h213.333v-128h-213.333v128zM725.333 554.667h213.333v-128h-213.333v128zM725.333 384h213.333v-128h-213.333v128zM725.333 213.333h213.333v-128h-213.333v128z" />
<glyph unicode="&#xe9a3;" glyph-name="fluorine_0163" d="M170.667 725.333h341.333v-128h-341.333v128zM170.667 554.667h341.333v-128h-341.333v128zM170.667 384h341.333v-128h-341.333v128zM170.667 213.333h341.333v-128h-341.333v128zM769.365 213.333v92.587h-172.032v59.136l146.944 236.544h111.104v-227.584h46.592v-68.096h-46.592v-92.587h-86.016zM769.365 374.016v85.995c0 23.317 1.195 47.211 2.987 72.299h-2.389c-12.544-25.088-22.699-47.787-35.84-72.299l-51.968-84.821v-1.195h87.211z" />
<glyph unicode="&#xe9a4;" glyph-name="fluorine_0164" d="M857.728 534.656h-150.528l-8.363-59.733c8.363 1.195 15.531 1.195 25.088 1.195 37.035 0 74.667-8.384 102.144-28.075 29.269-19.712 47.189-51.968 47.189-97.344 0-72.299-62.123-136.192-166.656-136.192-47.189 0-86.613 10.752-108.117 22.080l16.128 68.096c17.323-8.363 52.565-19.115 87.808-19.115 37.632 0 77.653 17.92 77.653 59.115 0 40.021-31.659 64.512-109.312 64.512-21.504 0-36.437-1.216-52.565-3.584l25.685 203.691h213.845v-74.645zM170.667 725.333h341.333v-128h-341.333v128zM170.667 554.667h341.333v-128h-341.333v128zM170.667 384h341.333v-128h-341.333v128zM170.667 213.333h341.333v-128h-341.333v128z" />
<glyph unicode="&#xe9a5;" glyph-name="fluorine_0165" d="M853.589 543.637c-10.155 0.597-20.907 0-35.243-1.195-80.64-6.592-116.48-47.787-126.635-93.184h1.792c19.115 19.712 45.995 31.061 82.432 31.061 65.109 0 120.064-45.995 120.064-126.656 0-77.013-59.136-140.331-143.36-140.331-103.339 0-154.112 77.035-154.112 169.621 0 72.875 26.88 133.803 68.693 172.651 38.827 35.221 89.003 54.357 149.931 57.344 16.725 1.195 27.477 1.195 36.437 0.597v-69.909zM804.011 348.907c0 35.84-19.115 66.901-57.941 66.901-24.491 0-44.8-14.912-53.76-34.645-2.389-4.779-3.584-11.947-3.584-22.677 1.792-41.216 21.504-78.251 62.72-78.251 32.256 0 52.565 29.269 52.565 68.672zM170.667 725.333h341.333v-128h-341.333v128zM170.667 554.667h341.333v-128h-341.333v128zM170.667 384h341.333v-128h-341.333v128zM170.667 213.333h341.333v-128h-341.333v128z" />
<glyph unicode="&#xe9a6;" glyph-name="fluorine_0166" d="M810.667 768h-597.333c-47.36 0-85.333-37.995-85.333-85.333v-597.333c0-47.125 38.208-85.333 85.333-85.333h597.333c47.125 0 85.333 38.208 85.333 85.333v597.333c0 47.339-38.421 85.333-85.333 85.333zM810.667 682.667v-597.333h-597.333v597.333h597.333z" />
<glyph unicode="&#xe9a7;" glyph-name="fluorine_0167" d="M810.667 85.333h-597.333v597.333h426.667v85.333h-426.667c-47.36 0-85.333-37.995-85.333-85.333v-597.333c0-47.125 38.208-85.333 85.333-85.333h597.333c47.125 0 85.333 38.208 85.333 85.333v341.333h-85.333zM337.493 465.92l-60.16-60.587 192-192 426.667 426.667-60.16 60.587-366.507-366.507-131.84 131.84z" />
<glyph unicode="&#xe9a8;" glyph-name="fluorine_0168" d="M768 341.333v85.333h-348.587l174.293 174.293-60.373 60.373-277.333-277.333 277.333-277.333 60.373 60.373-174.293 174.293zM512 810.667c-235.733 0-426.667-190.933-426.667-426.667 0-235.52 190.933-426.667 426.667-426.667 235.52 0 426.667 191.147 426.667 426.667 0 235.733-191.147 426.667-426.667 426.667zM512 42.667c-188.203 0-341.333 153.131-341.333 341.333s153.131 341.333 341.333 341.333 341.333-153.131 341.333-341.333-153.131-341.333-341.333-341.333z" />
<glyph unicode="&#xe9a9;" glyph-name="fluorine_0169" d="M256 341.333v85.333h348.587l-174.293 174.293 60.373 60.373 277.333-277.333-277.333-277.333-60.373 60.373 174.293 174.293zM512 810.667c-235.733 0-426.667-190.933-426.667-426.667 0-235.52 190.933-426.667 426.667-426.667 235.52 0 426.667 191.147 426.667 426.667 0 235.733-191.147 426.667-426.667 426.667zM512 42.667c-188.203 0-341.333 153.131-341.333 341.333s153.131 341.333 341.333 341.333 341.333-153.131 341.333-341.333-153.131-341.333-341.333-341.333z" />
<glyph unicode="&#xe9aa;" glyph-name="fluorine_0170" d="M469.333 128h85.333v348.587l174.293-174.293 60.373 60.373-277.333 277.333-277.333-277.333 60.373-60.373 174.293 174.293zM512 810.667c-235.733 0-426.667-190.933-426.667-426.667 0-235.52 190.933-426.667 426.667-426.667 235.52 0 426.667 191.147 426.667 426.667 0 235.733-191.147 426.667-426.667 426.667zM512 42.667c-188.203 0-341.333 153.131-341.333 341.333s153.131 341.333 341.333 341.333 341.333-153.131 341.333-341.333-153.131-341.333-341.333-341.333z" />
<glyph unicode="&#xe9ab;" glyph-name="fluorine_0171" d="M469.333 640h85.333v-348.587l174.293 174.293 60.373-60.373-277.333-277.333-277.333 277.333 60.373 60.373 174.293-174.293zM512 810.667c-235.733 0-426.667-190.933-426.667-426.667 0-235.52 190.933-426.667 426.667-426.667 235.52 0 426.667 191.147 426.667 426.667 0 235.733-191.147 426.667-426.667 426.667zM512 42.667c-188.203 0-341.333 153.131-341.333 341.333s153.131 341.333 341.333 341.333 341.333-153.131 341.333-341.333-153.131-341.333-341.333-341.333z" />
<glyph unicode="&#xe9ac;" glyph-name="fluorine_0172" d="M512 810.667c-235.733 0-426.667-190.933-426.667-426.667 0-235.52 190.933-426.667 426.667-426.667 235.52 0 426.667 191.147 426.667 426.667 0 235.733-191.147 426.667-426.667 426.667zM720 315.243l-42.667-73.92-208 121.344v277.333h85.333v-228.032l165.333-96.725z" />
<glyph unicode="&#xe9ad;" glyph-name="fluorine_0173" d="M512 810.667c-235.733 0-426.667-190.933-426.667-426.667 0-235.52 190.933-426.667 426.667-426.667 235.52 0 426.667 191.147 426.667 426.667 0 235.733-191.147 426.667-426.667 426.667zM512 42.667c-188.203 0-341.333 153.131-341.333 341.333s153.131 341.333 341.333 341.333 341.333-153.131 341.333-341.333-153.131-341.333-341.333-341.333zM554.667 411.968v185.365h-85.333v-234.667l184.768-106.667 42.667 73.92z" />
<glyph unicode="&#xe9ae;" glyph-name="fluorine_0174" d="M938.667 384c0-235.648-191.019-426.667-426.667-426.667s-426.667 191.019-426.667 426.667 191.019 426.667 426.667 426.667 426.667-191.019 426.667-426.667zM256 469.333h341.333v-128l170.667 170.667-170.667 170.667v-128h-341.333v-85.333zM768 298.667h-341.333v128l-170.667-170.667 170.667-170.667v128h341.333v85.333z" />
<glyph unicode="&#xe9af;" glyph-name="fluorine_0175" d="M512 810.667c-235.733 0-426.667-190.933-426.667-426.667s190.933-426.667 426.667-426.667 426.667 190.933 426.667 426.667-190.933 426.667-426.667 426.667zM469.333 213.333h-128v341.333h128v-341.333zM682.667 213.333h-128v341.333h128v-341.333z" />
<glyph unicode="&#xe9b0;" glyph-name="fluorine_0176" d="M512 810.667c-235.733 0-426.667-190.933-426.667-426.667s190.933-426.667 426.667-426.667 426.667 190.933 426.667 426.667-190.933 426.667-426.667 426.667zM597.333 170.667c0-47.125-38.208-85.333-85.333-85.333s-85.333 38.208-85.333 85.333 38.208 85.333 85.333 85.333 85.333-38.208 85.333-85.333zM554.667 469.333h128l-170.667-170.667-170.667 170.667h128v170.667h85.333v-170.667z" />
<glyph unicode="&#xe9b1;" glyph-name="fluorine_0177" d="M810.667 42.667h-597.333v469.333h597.333zM682.667 810.667v-85.333h-341.333v85.333h-85.333v-85.333h-42.667c-47.36 0-85.333-37.995-85.333-85.333v-597.333c0-47.125 38.208-85.333 85.333-85.333h597.333c47.125 0 85.333 38.208 85.333 85.333v597.333c0 47.339-38.421 85.333-85.333 85.333h-42.667v85.333zM725.333 341.333h-213.333v-213.333h213.333v213.333z" />
<glyph unicode="&#xe9b2;" glyph-name="fluorine_0178" d="M643.563 298.667h64v-120.341l104.085-60.16-32-55.424-136.085 78.507v157.419zM814.229 512h-597.333v-469.333h199.253c-18.347 38.827-28.587 82.325-28.587 128 0 164.949 133.717 298.667 298.667 298.667 45.675 0 89.173-10.24 128-28.587v71.253zM216.896-42.667c-47.36 0-85.333 38.421-85.333 85.333v597.333c0 47.339 37.973 85.333 85.333 85.333h42.667v85.333h85.333v-85.333h341.333v85.333h85.333v-85.333h42.667c47.125 0 85.333-38.208 85.333-85.333v-260.245c52.907-53.76 85.333-127.573 85.333-209.088 0-164.949-133.717-298.667-298.667-298.667-81.493 0-155.307 32.427-209.067 85.333h-260.267zM686.229 377.579c-114.283 0-206.933-92.629-206.933-206.912v0c0-114.325 92.608-206.912 206.933-206.912 114.283 0 206.912 92.629 206.912 206.912v0c0 114.325-92.587 206.912-206.912 206.912z" />
<glyph unicode="&#xe9b3;" glyph-name="fluorine_0179" d="M640 341.333h64v-120.341l104.085-60.16-32-55.424-136.085 78.507v157.419zM213.333 768h597.333c47.125 0 85.333-38.208 85.333-85.333v-260.245c52.907-53.76 85.333-127.573 85.333-209.088 0-164.949-133.717-298.667-298.667-298.667-81.493 0-155.307 32.427-209.067 85.333h-260.267c-47.125 0-85.333 38.208-85.333 85.333v597.333c0 47.125 38.208 85.333 85.333 85.333zM213.333 213.333v-128h199.253c-18.347 38.827-28.587 82.325-28.587 128h-170.667zM213.333 512h256v128h-256v-128zM810.667 512v128h-256v-128h256zM213.333 298.667h183.040c14.507 49.088 41.387 92.992 77.227 128h-260.267v-128zM682.667 420.245c-114.283 0-206.933-92.629-206.933-206.912v0c0-114.325 92.587-206.912 206.933-206.912 114.283 0 206.912 92.629 206.912 206.912v0c0 114.325-92.587 206.912-206.912 206.912z" />
<glyph unicode="&#xe9b4;" glyph-name="fluorine_0180" d="M597.333 725.333v-85.333h110.315l-109.248-109.248 60.331-60.331 109.269 109.248v-110.336h85.333v256zM853.333 298.667h-85.333v-110.336l-109.248 109.248-60.331-60.331 109.248-109.248h-110.336v-85.333h256zM426.667 42.667v85.333h-110.315l109.248 109.248-60.331 60.331-109.269-109.248v110.336h-85.333v-256zM170.667 469.333h85.333v110.336l109.248-109.248 60.331 60.331-109.248 109.248h110.336v85.333h-256z" />
</font>
</defs>
</svg>
